<svg width="250" height="272" viewBox="0 0 250 272" fill="none" xmlns="http://www.w3.org/2000/svg">
<rect width="250" height="272" fill="#E5E5E5"/>
<g id="Real Estate Landing Page UI" clip-path="url(#clip0_0_1)">
<rect width="1440" height="5169" transform="translate(-595 -1194)" fill="white"/>
<g id="How it works">
<g id="Card 02">
<path id="Conveying or northward offending admitting perfectly my. Colonel gravit and moonlight." d="M14.1484 201.391C14.0078 202.594 13.5625 203.523 12.8125 204.18C12.0677 204.831 11.0755 205.156 9.83594 205.156C8.49219 205.156 7.41406 204.674 6.60156 203.711C5.79427 202.747 5.39062 201.458 5.39062 199.844V198.75C5.39062 197.693 5.57812 196.763 5.95312 195.961C6.33333 195.159 6.86979 194.544 7.5625 194.117C8.25521 193.685 9.05729 193.469 9.96875 193.469C11.1771 193.469 12.1458 193.807 12.875 194.484C13.6042 195.156 14.0286 196.089 14.1484 197.281H12.6406C12.5104 196.375 12.2266 195.719 11.7891 195.312C11.3568 194.906 10.75 194.703 9.96875 194.703C9.01042 194.703 8.25781 195.057 7.71094 195.766C7.16927 196.474 6.89844 197.482 6.89844 198.789V199.891C6.89844 201.125 7.15625 202.107 7.67188 202.836C8.1875 203.565 8.90885 203.93 9.83594 203.93C10.6693 203.93 11.3073 203.742 11.75 203.367C12.1979 202.987 12.4948 202.328 12.6406 201.391H14.1484ZM15.5938 200.695C15.5938 199.867 15.7552 199.122 16.0781 198.461C16.4062 197.799 16.8594 197.289 17.4375 196.93C18.0208 196.57 18.6849 196.391 19.4297 196.391C20.5807 196.391 21.5104 196.789 22.2188 197.586C22.9323 198.383 23.2891 199.443 23.2891 200.766V200.867C23.2891 201.69 23.1302 202.43 22.8125 203.086C22.5 203.737 22.0495 204.245 21.4609 204.609C20.8776 204.974 20.2057 205.156 19.4453 205.156C18.2995 205.156 17.3698 204.758 16.6562 203.961C15.9479 203.164 15.5938 202.109 15.5938 200.797V200.695ZM17.0469 200.867C17.0469 201.805 17.263 202.557 17.6953 203.125C18.1328 203.693 18.7161 203.977 19.4453 203.977C20.1797 203.977 20.763 203.69 21.1953 203.117C21.6276 202.539 21.8438 201.732 21.8438 200.695C21.8438 199.768 21.6224 199.018 21.1797 198.445C20.7422 197.867 20.1589 197.578 19.4297 197.578C18.7161 197.578 18.1406 197.862 17.7031 198.43C17.2656 198.997 17.0469 199.81 17.0469 200.867ZM26.4688 196.547L26.5156 197.609C27.1615 196.797 28.0052 196.391 29.0469 196.391C30.8333 196.391 31.7344 197.398 31.75 199.414V205H30.3047V199.406C30.2995 198.797 30.1589 198.346 29.8828 198.055C29.612 197.763 29.1875 197.617 28.6094 197.617C28.1406 197.617 27.7292 197.742 27.375 197.992C27.0208 198.242 26.7448 198.57 26.5469 198.977V205H25.1016V196.547H26.4688ZM36.7188 203.039L38.8125 196.547H40.2891L37.2578 205H36.1562L33.0938 196.547H34.5703L36.7188 203.039ZM45.0781 205.156C43.9323 205.156 43 204.781 42.2812 204.031C41.5625 203.276 41.2031 202.268 41.2031 201.008V200.742C41.2031 199.904 41.362 199.156 41.6797 198.5C42.0026 197.839 42.4505 197.323 43.0234 196.953C43.6016 196.578 44.2266 196.391 44.8984 196.391C45.9974 196.391 46.8516 196.753 47.4609 197.477C48.0703 198.201 48.375 199.237 48.375 200.586V201.188H42.6484C42.6693 202.021 42.9115 202.695 43.375 203.211C43.8438 203.721 44.4375 203.977 45.1562 203.977C45.6667 203.977 46.099 203.872 46.4531 203.664C46.8073 203.456 47.1172 203.18 47.3828 202.836L48.2656 203.523C47.5573 204.612 46.4948 205.156 45.0781 205.156ZM44.8984 197.578C44.3151 197.578 43.8255 197.792 43.4297 198.219C43.0339 198.641 42.7891 199.234 42.6953 200H46.9297V199.891C46.888 199.156 46.6901 198.589 46.3359 198.188C45.9818 197.781 45.5026 197.578 44.8984 197.578ZM52.7109 202.883L54.6797 196.547H56.2266L52.8281 206.305C52.3021 207.711 51.4661 208.414 50.3203 208.414L50.0469 208.391L49.5078 208.289V207.117L49.8984 207.148C50.388 207.148 50.7682 207.049 51.0391 206.852C51.3151 206.654 51.5417 206.292 51.7188 205.766L52.0391 204.906L49.0234 196.547H50.6016L52.7109 202.883ZM59.0938 205H57.6484V196.547H59.0938V205ZM57.5312 194.305C57.5312 194.07 57.6016 193.872 57.7422 193.711C57.888 193.549 58.1016 193.469 58.3828 193.469C58.6641 193.469 58.8776 193.549 59.0234 193.711C59.1693 193.872 59.2422 194.07 59.2422 194.305C59.2422 194.539 59.1693 194.734 59.0234 194.891C58.8776 195.047 58.6641 195.125 58.3828 195.125C58.1016 195.125 57.888 195.047 57.7422 194.891C57.6016 194.734 57.5312 194.539 57.5312 194.305ZM62.7812 196.547L62.8281 197.609C63.474 196.797 64.3177 196.391 65.3594 196.391C67.1458 196.391 68.0469 197.398 68.0625 199.414V205H66.6172V199.406C66.612 198.797 66.4714 198.346 66.1953 198.055C65.9245 197.763 65.5 197.617 64.9219 197.617C64.4531 197.617 64.0417 197.742 63.6875 197.992C63.3333 198.242 63.0573 198.57 62.8594 198.977V205H61.4141V196.547H62.7812ZM69.8984 200.703C69.8984 199.385 70.2031 198.339 70.8125 197.562C71.4219 196.781 72.2292 196.391 73.2344 196.391C74.2656 196.391 75.0703 196.755 75.6484 197.484L75.7188 196.547H77.0391V204.797C77.0391 205.891 76.7135 206.753 76.0625 207.383C75.4167 208.013 74.5469 208.328 73.4531 208.328C72.8438 208.328 72.2474 208.198 71.6641 207.938C71.0807 207.677 70.6354 207.32 70.3281 206.867L71.0781 206C71.6979 206.766 72.4557 207.148 73.3516 207.148C74.0547 207.148 74.6016 206.951 74.9922 206.555C75.388 206.159 75.5859 205.602 75.5859 204.883V204.156C75.0078 204.823 74.2188 205.156 73.2188 205.156C72.2292 205.156 71.4271 204.758 70.8125 203.961C70.2031 203.164 69.8984 202.078 69.8984 200.703ZM71.3516 200.867C71.3516 201.82 71.5469 202.57 71.9375 203.117C72.3281 203.659 72.875 203.93 73.5781 203.93C74.4896 203.93 75.1589 203.516 75.5859 202.688V198.828C75.1432 198.021 74.4792 197.617 73.5938 197.617C72.8906 197.617 72.3411 197.891 71.9453 198.438C71.5495 198.984 71.3516 199.794 71.3516 200.867ZM82.8125 200.695C82.8125 199.867 82.974 199.122 83.2969 198.461C83.625 197.799 84.0781 197.289 84.6562 196.93C85.2396 196.57 85.9036 196.391 86.6484 196.391C87.7995 196.391 88.7292 196.789 89.4375 197.586C90.151 198.383 90.5078 199.443 90.5078 200.766V200.867C90.5078 201.69 90.349 202.43 90.0312 203.086C89.7188 203.737 89.2682 204.245 88.6797 204.609C88.0964 204.974 87.4245 205.156 86.6641 205.156C85.5182 205.156 84.5885 204.758 83.875 203.961C83.1667 203.164 82.8125 202.109 82.8125 200.797V200.695ZM84.2656 200.867C84.2656 201.805 84.4818 202.557 84.9141 203.125C85.3516 203.693 85.9349 203.977 86.6641 203.977C87.3984 203.977 87.9818 203.69 88.4141 203.117C88.8464 202.539 89.0625 201.732 89.0625 200.695C89.0625 199.768 88.8411 199.018 88.3984 198.445C87.9609 197.867 87.3776 197.578 86.6484 197.578C85.9349 197.578 85.3594 197.862 84.9219 198.43C84.4844 198.997 84.2656 199.81 84.2656 200.867ZM96.4062 197.844C96.1875 197.807 95.9505 197.789 95.6953 197.789C94.7474 197.789 94.1042 198.193 93.7656 199V205H92.3203V196.547H93.7266L93.75 197.523C94.224 196.768 94.8958 196.391 95.7656 196.391C96.0469 196.391 96.2604 196.427 96.4062 196.5V197.844ZM103.078 196.547L103.125 197.609C103.771 196.797 104.615 196.391 105.656 196.391C107.443 196.391 108.344 197.398 108.359 199.414V205H106.914V199.406C106.909 198.797 106.768 198.346 106.492 198.055C106.221 197.763 105.797 197.617 105.219 197.617C104.75 197.617 104.339 197.742 103.984 197.992C103.63 198.242 103.354 198.57 103.156 198.977V205H101.711V196.547H103.078ZM110.156 200.695C110.156 199.867 110.318 199.122 110.641 198.461C110.969 197.799 111.422 197.289 112 196.93C112.583 196.57 113.247 196.391 113.992 196.391C115.143 196.391 116.073 196.789 116.781 197.586C117.495 198.383 117.852 199.443 117.852 200.766V200.867C117.852 201.69 117.693 202.43 117.375 203.086C117.062 203.737 116.612 204.245 116.023 204.609C115.44 204.974 114.768 205.156 114.008 205.156C112.862 205.156 111.932 204.758 111.219 203.961C110.51 203.164 110.156 202.109 110.156 200.797V200.695ZM111.609 200.867C111.609 201.805 111.826 202.557 112.258 203.125C112.695 203.693 113.279 203.977 114.008 203.977C114.742 203.977 115.326 203.69 115.758 203.117C116.19 202.539 116.406 201.732 116.406 200.695C116.406 199.768 116.185 199.018 115.742 198.445C115.305 197.867 114.721 197.578 113.992 197.578C113.279 197.578 112.703 197.862 112.266 198.43C111.828 198.997 111.609 199.81 111.609 200.867ZM123.75 197.844C123.531 197.807 123.294 197.789 123.039 197.789C122.091 197.789 121.448 198.193 121.109 199V205H119.664V196.547H121.07L121.094 197.523C121.568 196.768 122.24 196.391 123.109 196.391C123.391 196.391 123.604 196.427 123.75 196.5V197.844ZM127.438 194.5V196.547H129.016V197.664H127.438V202.906C127.438 203.245 127.508 203.5 127.648 203.672C127.789 203.839 128.029 203.922 128.367 203.922C128.534 203.922 128.763 203.891 129.055 203.828V205C128.674 205.104 128.305 205.156 127.945 205.156C127.299 205.156 126.812 204.961 126.484 204.57C126.156 204.18 125.992 203.625 125.992 202.906V197.664H124.453V196.547H125.992V194.5H127.438ZM132.156 197.57C132.797 196.784 133.63 196.391 134.656 196.391C136.443 196.391 137.344 197.398 137.359 199.414V205H135.914V199.406C135.909 198.797 135.768 198.346 135.492 198.055C135.221 197.763 134.797 197.617 134.219 197.617C133.75 197.617 133.339 197.742 132.984 197.992C132.63 198.242 132.354 198.57 132.156 198.977V205H130.711V193H132.156V197.57ZM147.008 203.008L148.633 196.547H150.078L147.617 205H146.445L144.391 198.594L142.391 205H141.219L138.766 196.547H140.203L141.867 202.875L143.836 196.547H145L147.008 203.008ZM156.773 205C156.69 204.833 156.622 204.536 156.57 204.109C155.898 204.807 155.096 205.156 154.164 205.156C153.331 205.156 152.646 204.922 152.109 204.453C151.578 203.979 151.312 203.38 151.312 202.656C151.312 201.776 151.646 201.094 152.312 200.609C152.984 200.12 153.927 199.875 155.141 199.875H156.547V199.211C156.547 198.706 156.396 198.305 156.094 198.008C155.792 197.706 155.346 197.555 154.758 197.555C154.242 197.555 153.81 197.685 153.461 197.945C153.112 198.206 152.938 198.521 152.938 198.891H151.484C151.484 198.469 151.633 198.062 151.93 197.672C152.232 197.276 152.638 196.964 153.148 196.734C153.664 196.505 154.229 196.391 154.844 196.391C155.818 196.391 156.581 196.635 157.133 197.125C157.685 197.609 157.971 198.279 157.992 199.133V203.023C157.992 203.799 158.091 204.417 158.289 204.875V205H156.773ZM154.375 203.898C154.828 203.898 155.258 203.781 155.664 203.547C156.07 203.312 156.365 203.008 156.547 202.633V200.898H155.414C153.643 200.898 152.758 201.417 152.758 202.453C152.758 202.906 152.909 203.26 153.211 203.516C153.513 203.771 153.901 203.898 154.375 203.898ZM164.344 197.844C164.125 197.807 163.888 197.789 163.633 197.789C162.685 197.789 162.042 198.193 161.703 199V205H160.258V196.547H161.664L161.688 197.523C162.161 196.768 162.833 196.391 163.703 196.391C163.984 196.391 164.198 196.427 164.344 196.5V197.844ZM165.172 200.703C165.172 199.406 165.479 198.365 166.094 197.578C166.708 196.786 167.513 196.391 168.508 196.391C169.497 196.391 170.281 196.729 170.859 197.406V193H172.305V205H170.977L170.906 204.094C170.328 204.802 169.523 205.156 168.492 205.156C167.513 205.156 166.714 204.755 166.094 203.953C165.479 203.151 165.172 202.104 165.172 200.812V200.703ZM166.617 200.867C166.617 201.826 166.815 202.576 167.211 203.117C167.607 203.659 168.154 203.93 168.852 203.93C169.768 203.93 170.438 203.518 170.859 202.695V198.812C170.427 198.016 169.763 197.617 168.867 197.617C168.159 197.617 167.607 197.891 167.211 198.438C166.815 198.984 166.617 199.794 166.617 200.867ZM178.141 200.695C178.141 199.867 178.302 199.122 178.625 198.461C178.953 197.799 179.406 197.289 179.984 196.93C180.568 196.57 181.232 196.391 181.977 196.391C183.128 196.391 184.057 196.789 184.766 197.586C185.479 198.383 185.836 199.443 185.836 200.766V200.867C185.836 201.69 185.677 202.43 185.359 203.086C185.047 203.737 184.596 204.245 184.008 204.609C183.424 204.974 182.753 205.156 181.992 205.156C180.846 205.156 179.917 204.758 179.203 203.961C178.495 203.164 178.141 202.109 178.141 200.797V200.695ZM179.594 200.867C179.594 201.805 179.81 202.557 180.242 203.125C180.68 203.693 181.263 203.977 181.992 203.977C182.727 203.977 183.31 203.69 183.742 203.117C184.174 202.539 184.391 201.732 184.391 200.695C184.391 199.768 184.169 199.018 183.727 198.445C183.289 197.867 182.706 197.578 181.977 197.578C181.263 197.578 180.688 197.862 180.25 198.43C179.812 198.997 179.594 199.81 179.594 200.867ZM188.359 205V197.664H187.023V196.547H188.359V195.68C188.359 194.773 188.602 194.073 189.086 193.578C189.57 193.083 190.255 192.836 191.141 192.836C191.474 192.836 191.805 192.88 192.133 192.969L192.055 194.141C191.81 194.094 191.549 194.07 191.273 194.07C190.805 194.07 190.443 194.208 190.188 194.484C189.932 194.755 189.805 195.146 189.805 195.656V196.547H191.609V197.664H189.805V205H188.359ZM193.922 205V197.664H192.586V196.547H193.922V195.68C193.922 194.773 194.164 194.073 194.648 193.578C195.133 193.083 195.818 192.836 196.703 192.836C197.036 192.836 197.367 192.88 197.695 192.969L197.617 194.141C197.372 194.094 197.112 194.07 196.836 194.07C196.367 194.07 196.005 194.208 195.75 194.484C195.495 194.755 195.367 195.146 195.367 195.656V196.547H197.172V197.664H195.367V205H193.922ZM202.094 205.156C200.948 205.156 200.016 204.781 199.297 204.031C198.578 203.276 198.219 202.268 198.219 201.008V200.742C198.219 199.904 198.378 199.156 198.695 198.5C199.018 197.839 199.466 197.323 200.039 196.953C200.617 196.578 201.242 196.391 201.914 196.391C203.013 196.391 203.867 196.753 204.477 197.477C205.086 198.201 205.391 199.237 205.391 200.586V201.188H199.664C199.685 202.021 199.927 202.695 200.391 203.211C200.859 203.721 201.453 203.977 202.172 203.977C202.682 203.977 203.115 203.872 203.469 203.664C203.823 203.456 204.133 203.18 204.398 202.836L205.281 203.523C204.573 204.612 203.51 205.156 202.094 205.156ZM201.914 197.578C201.331 197.578 200.841 197.792 200.445 198.219C200.049 198.641 199.805 199.234 199.711 200H203.945V199.891C203.904 199.156 203.706 198.589 203.352 198.188C202.997 197.781 202.518 197.578 201.914 197.578ZM208.438 196.547L208.484 197.609C209.13 196.797 209.974 196.391 211.016 196.391C212.802 196.391 213.703 197.398 213.719 199.414V205H212.273V199.406C212.268 198.797 212.128 198.346 211.852 198.055C211.581 197.763 211.156 197.617 210.578 197.617C210.109 197.617 209.698 197.742 209.344 197.992C208.99 198.242 208.714 198.57 208.516 198.977V205H207.07V196.547H208.438ZM215.547 200.703C215.547 199.406 215.854 198.365 216.469 197.578C217.083 196.786 217.888 196.391 218.883 196.391C219.872 196.391 220.656 196.729 221.234 197.406V193H222.68V205H221.352L221.281 204.094C220.703 204.802 219.898 205.156 218.867 205.156C217.888 205.156 217.089 204.755 216.469 203.953C215.854 203.151 215.547 202.104 215.547 200.812V200.703ZM216.992 200.867C216.992 201.826 217.19 202.576 217.586 203.117C217.982 203.659 218.529 203.93 219.227 203.93C220.143 203.93 220.812 203.518 221.234 202.695V198.812C220.802 198.016 220.138 197.617 219.242 197.617C218.534 197.617 217.982 197.891 217.586 198.438C217.19 198.984 216.992 199.794 216.992 200.867ZM226.5 205H225.055V196.547H226.5V205ZM224.938 194.305C224.938 194.07 225.008 193.872 225.148 193.711C225.294 193.549 225.508 193.469 225.789 193.469C226.07 193.469 226.284 193.549 226.43 193.711C226.576 193.872 226.648 194.07 226.648 194.305C226.648 194.539 226.576 194.734 226.43 194.891C226.284 195.047 226.07 195.125 225.789 195.125C225.508 195.125 225.294 195.047 225.148 194.891C225.008 194.734 224.938 194.539 224.938 194.305ZM230.188 196.547L230.234 197.609C230.88 196.797 231.724 196.391 232.766 196.391C234.552 196.391 235.453 197.398 235.469 199.414V205H234.023V199.406C234.018 198.797 233.878 198.346 233.602 198.055C233.331 197.763 232.906 197.617 232.328 197.617C231.859 197.617 231.448 197.742 231.094 197.992C230.74 198.242 230.464 198.57 230.266 198.977V205H228.82V196.547H230.188ZM237.305 200.703C237.305 199.385 237.609 198.339 238.219 197.562C238.828 196.781 239.635 196.391 240.641 196.391C241.672 196.391 242.477 196.755 243.055 197.484L243.125 196.547H244.445V204.797C244.445 205.891 244.12 206.753 243.469 207.383C242.823 208.013 241.953 208.328 240.859 208.328C240.25 208.328 239.654 208.198 239.07 207.938C238.487 207.677 238.042 207.32 237.734 206.867L238.484 206C239.104 206.766 239.862 207.148 240.758 207.148C241.461 207.148 242.008 206.951 242.398 206.555C242.794 206.159 242.992 205.602 242.992 204.883V204.156C242.414 204.823 241.625 205.156 240.625 205.156C239.635 205.156 238.833 204.758 238.219 203.961C237.609 203.164 237.305 202.078 237.305 200.703ZM238.758 200.867C238.758 201.82 238.953 202.57 239.344 203.117C239.734 203.659 240.281 203.93 240.984 203.93C241.896 203.93 242.565 203.516 242.992 202.688V198.828C242.549 198.021 241.885 197.617 241 197.617C240.297 197.617 239.747 197.891 239.352 198.438C238.956 198.984 238.758 199.794 238.758 200.867ZM21.0938 231C21.0104 230.833 20.9427 230.536 20.8906 230.109C20.2188 230.807 19.4167 231.156 18.4844 231.156C17.651 231.156 16.9661 230.922 16.4297 230.453C15.8984 229.979 15.6328 229.38 15.6328 228.656C15.6328 227.776 15.9661 227.094 16.6328 226.609C17.3047 226.12 18.2474 225.875 19.4609 225.875H20.8672V225.211C20.8672 224.706 20.7161 224.305 20.4141 224.008C20.112 223.706 19.6667 223.555 19.0781 223.555C18.5625 223.555 18.1302 223.685 17.7812 223.945C17.4323 224.206 17.2578 224.521 17.2578 224.891H15.8047C15.8047 224.469 15.9531 224.062 16.25 223.672C16.5521 223.276 16.9583 222.964 17.4688 222.734C17.9844 222.505 18.5495 222.391 19.1641 222.391C20.138 222.391 20.901 222.635 21.4531 223.125C22.0052 223.609 22.2917 224.279 22.3125 225.133V229.023C22.3125 229.799 22.4115 230.417 22.6094 230.875V231H21.0938ZM18.6953 229.898C19.1484 229.898 19.5781 229.781 19.9844 229.547C20.3906 229.312 20.6849 229.008 20.8672 228.633V226.898H19.7344C17.9635 226.898 17.0781 227.417 17.0781 228.453C17.0781 228.906 17.2292 229.26 17.5312 229.516C17.8333 229.771 18.2214 229.898 18.6953 229.898ZM24.2266 226.703C24.2266 225.406 24.5339 224.365 25.1484 223.578C25.763 222.786 26.5677 222.391 27.5625 222.391C28.5521 222.391 29.3359 222.729 29.9141 223.406V219H31.3594V231H30.0312L29.9609 230.094C29.3828 230.802 28.5781 231.156 27.5469 231.156C26.5677 231.156 25.7682 230.755 25.1484 229.953C24.5339 229.151 24.2266 228.104 24.2266 226.812V226.703ZM25.6719 226.867C25.6719 227.826 25.8698 228.576 26.2656 229.117C26.6615 229.659 27.2083 229.93 27.9062 229.93C28.8229 229.93 29.4922 229.518 29.9141 228.695V224.812C29.4818 224.016 28.8177 223.617 27.9219 223.617C27.2135 223.617 26.6615 223.891 26.2656 224.438C25.8698 224.984 25.6719 225.794 25.6719 226.867ZM34.9688 222.547L35.0078 223.484C35.6276 222.755 36.4635 222.391 37.5156 222.391C38.6979 222.391 39.5026 222.844 39.9297 223.75C40.2109 223.344 40.5755 223.016 41.0234 222.766C41.4766 222.516 42.0104 222.391 42.625 222.391C44.4792 222.391 45.4219 223.372 45.4531 225.336V231H44.0078V225.422C44.0078 224.818 43.8698 224.367 43.5938 224.07C43.3177 223.768 42.8542 223.617 42.2031 223.617C41.6667 223.617 41.2214 223.779 40.8672 224.102C40.513 224.419 40.3073 224.849 40.25 225.391V231H38.7969V225.461C38.7969 224.232 38.1953 223.617 36.9922 223.617C36.0443 223.617 35.3958 224.021 35.0469 224.828V231H33.6016V222.547H34.9688ZM49.2109 231H47.7656V222.547H49.2109V231ZM47.6484 220.305C47.6484 220.07 47.7188 219.872 47.8594 219.711C48.0052 219.549 48.2188 219.469 48.5 219.469C48.7812 219.469 48.9948 219.549 49.1406 219.711C49.2865 219.872 49.3594 220.07 49.3594 220.305C49.3594 220.539 49.2865 220.734 49.1406 220.891C48.9948 221.047 48.7812 221.125 48.5 221.125C48.2188 221.125 48.0052 221.047 47.8594 220.891C47.7188 220.734 47.6484 220.539 47.6484 220.305ZM53.4922 220.5V222.547H55.0703V223.664H53.4922V228.906C53.4922 229.245 53.5625 229.5 53.7031 229.672C53.8438 229.839 54.0833 229.922 54.4219 229.922C54.5885 229.922 54.8177 229.891 55.1094 229.828V231C54.7292 231.104 54.3594 231.156 54 231.156C53.3542 231.156 52.8672 230.961 52.5391 230.57C52.2109 230.18 52.0469 229.625 52.0469 228.906V223.664H50.5078V222.547H52.0469V220.5H53.4922ZM58.7266 220.5V222.547H60.3047V223.664H58.7266V228.906C58.7266 229.245 58.7969 229.5 58.9375 229.672C59.0781 229.839 59.3177 229.922 59.6562 229.922C59.8229 229.922 60.0521 229.891 60.3438 229.828V231C59.9635 231.104 59.5938 231.156 59.2344 231.156C58.5885 231.156 58.1016 230.961 57.7734 230.57C57.4453 230.18 57.2812 229.625 57.2812 228.906V223.664H55.7422V222.547H57.2812V220.5H58.7266ZM63.5703 231H62.125V222.547H63.5703V231ZM62.0078 220.305C62.0078 220.07 62.0781 219.872 62.2188 219.711C62.3646 219.549 62.5781 219.469 62.8594 219.469C63.1406 219.469 63.3542 219.549 63.5 219.711C63.6458 219.872 63.7188 220.07 63.7188 220.305C63.7188 220.539 63.6458 220.734 63.5 220.891C63.3542 221.047 63.1406 221.125 62.8594 221.125C62.5781 221.125 62.3646 221.047 62.2188 220.891C62.0781 220.734 62.0078 220.539 62.0078 220.305ZM67.2578 222.547L67.3047 223.609C67.9505 222.797 68.7943 222.391 69.8359 222.391C71.6224 222.391 72.5234 223.398 72.5391 225.414V231H71.0938V225.406C71.0885 224.797 70.9479 224.346 70.6719 224.055C70.401 223.763 69.9766 223.617 69.3984 223.617C68.9297 223.617 68.5182 223.742 68.1641 223.992C67.8099 224.242 67.5339 224.57 67.3359 224.977V231H65.8906V222.547H67.2578ZM74.375 226.703C74.375 225.385 74.6797 224.339 75.2891 223.562C75.8984 222.781 76.7057 222.391 77.7109 222.391C78.7422 222.391 79.5469 222.755 80.125 223.484L80.1953 222.547H81.5156V230.797C81.5156 231.891 81.1901 232.753 80.5391 233.383C79.8932 234.013 79.0234 234.328 77.9297 234.328C77.3203 234.328 76.724 234.198 76.1406 233.938C75.5573 233.677 75.112 233.32 74.8047 232.867L75.5547 232C76.1745 232.766 76.9323 233.148 77.8281 233.148C78.5312 233.148 79.0781 232.951 79.4688 232.555C79.8646 232.159 80.0625 231.602 80.0625 230.883V230.156C79.4844 230.823 78.6953 231.156 77.6953 231.156C76.7057 231.156 75.9036 230.758 75.2891 229.961C74.6797 229.164 74.375 228.078 74.375 226.703ZM75.8281 226.867C75.8281 227.82 76.0234 228.57 76.4141 229.117C76.8047 229.659 77.3516 229.93 78.0547 229.93C78.9661 229.93 79.6354 229.516 80.0625 228.688V224.828C79.6198 224.021 78.9557 223.617 78.0703 223.617C77.3672 223.617 76.8177 223.891 76.4219 224.438C76.026 224.984 75.8281 225.794 75.8281 226.867ZM94.8125 226.867C94.8125 228.154 94.5182 229.19 93.9297 229.977C93.3411 230.763 92.5443 231.156 91.5391 231.156C90.513 231.156 89.7057 230.831 89.1172 230.18V234.25H87.6719V222.547H88.9922L89.0625 223.484C89.651 222.755 90.4688 222.391 91.5156 222.391C92.5312 222.391 93.3333 222.773 93.9219 223.539C94.5156 224.305 94.8125 225.37 94.8125 226.734V226.867ZM93.3672 226.703C93.3672 225.75 93.1641 224.997 92.7578 224.445C92.3516 223.893 91.7943 223.617 91.0859 223.617C90.2109 223.617 89.5547 224.005 89.1172 224.781V228.82C89.5495 229.591 90.2109 229.977 91.1016 229.977C91.7943 229.977 92.3438 229.703 92.75 229.156C93.1615 228.604 93.3672 227.786 93.3672 226.703ZM100.164 231.156C99.0182 231.156 98.0859 230.781 97.3672 230.031C96.6484 229.276 96.2891 228.268 96.2891 227.008V226.742C96.2891 225.904 96.4479 225.156 96.7656 224.5C97.0885 223.839 97.5365 223.323 98.1094 222.953C98.6875 222.578 99.3125 222.391 99.9844 222.391C101.083 222.391 101.938 222.753 102.547 223.477C103.156 224.201 103.461 225.237 103.461 226.586V227.188H97.7344C97.7552 228.021 97.9974 228.695 98.4609 229.211C98.9297 229.721 99.5234 229.977 100.242 229.977C100.753 229.977 101.185 229.872 101.539 229.664C101.893 229.456 102.203 229.18 102.469 228.836L103.352 229.523C102.643 230.612 101.581 231.156 100.164 231.156ZM99.9844 223.578C99.401 223.578 98.9115 223.792 98.5156 224.219C98.1198 224.641 97.875 225.234 97.7812 226H102.016V225.891C101.974 225.156 101.776 224.589 101.422 224.188C101.068 223.781 100.589 223.578 99.9844 223.578ZM109.227 223.844C109.008 223.807 108.771 223.789 108.516 223.789C107.568 223.789 106.924 224.193 106.586 225V231H105.141V222.547H106.547L106.57 223.523C107.044 222.768 107.716 222.391 108.586 222.391C108.867 222.391 109.081 222.427 109.227 222.5V223.844ZM111.398 231V223.664H110.062V222.547H111.398V221.68C111.398 220.773 111.641 220.073 112.125 219.578C112.609 219.083 113.294 218.836 114.18 218.836C114.513 218.836 114.844 218.88 115.172 218.969L115.094 220.141C114.849 220.094 114.589 220.07 114.312 220.07C113.844 220.07 113.482 220.208 113.227 220.484C112.971 220.755 112.844 221.146 112.844 221.656V222.547H114.648V223.664H112.844V231H111.398ZM119.57 231.156C118.424 231.156 117.492 230.781 116.773 230.031C116.055 229.276 115.695 228.268 115.695 227.008V226.742C115.695 225.904 115.854 225.156 116.172 224.5C116.495 223.839 116.943 223.323 117.516 222.953C118.094 222.578 118.719 222.391 119.391 222.391C120.49 222.391 121.344 222.753 121.953 223.477C122.562 224.201 122.867 225.237 122.867 226.586V227.188H117.141C117.161 228.021 117.404 228.695 117.867 229.211C118.336 229.721 118.93 229.977 119.648 229.977C120.159 229.977 120.591 229.872 120.945 229.664C121.299 229.456 121.609 229.18 121.875 228.836L122.758 229.523C122.049 230.612 120.987 231.156 119.57 231.156ZM119.391 223.578C118.807 223.578 118.318 223.792 117.922 224.219C117.526 224.641 117.281 225.234 117.188 226H121.422V225.891C121.38 225.156 121.182 224.589 120.828 224.188C120.474 223.781 119.995 223.578 119.391 223.578ZM127.938 229.977C128.453 229.977 128.904 229.82 129.289 229.508C129.674 229.195 129.888 228.805 129.93 228.336H131.297C131.271 228.82 131.104 229.281 130.797 229.719C130.49 230.156 130.078 230.505 129.562 230.766C129.052 231.026 128.51 231.156 127.938 231.156C126.786 231.156 125.87 230.773 125.188 230.008C124.51 229.237 124.172 228.185 124.172 226.852V226.609C124.172 225.786 124.323 225.055 124.625 224.414C124.927 223.773 125.359 223.276 125.922 222.922C126.49 222.568 127.159 222.391 127.93 222.391C128.878 222.391 129.664 222.674 130.289 223.242C130.919 223.81 131.255 224.547 131.297 225.453H129.93C129.888 224.906 129.68 224.458 129.305 224.109C128.935 223.755 128.477 223.578 127.93 223.578C127.195 223.578 126.625 223.844 126.219 224.375C125.818 224.901 125.617 225.664 125.617 226.664V226.938C125.617 227.911 125.818 228.661 126.219 229.188C126.62 229.714 127.193 229.977 127.938 229.977ZM134.883 220.5V222.547H136.461V223.664H134.883V228.906C134.883 229.245 134.953 229.5 135.094 229.672C135.234 229.839 135.474 229.922 135.812 229.922C135.979 229.922 136.208 229.891 136.5 229.828V231C136.12 231.104 135.75 231.156 135.391 231.156C134.745 231.156 134.258 230.961 133.93 230.57C133.602 230.18 133.438 229.625 133.438 228.906V223.664H131.898V222.547H133.438V220.5H134.883ZM139.727 231H138.281V219H139.727V231ZM144.812 228.883L146.781 222.547H148.328L144.93 232.305C144.404 233.711 143.568 234.414 142.422 234.414L142.148 234.391L141.609 234.289V233.117L142 233.148C142.49 233.148 142.87 233.049 143.141 232.852C143.417 232.654 143.643 232.292 143.82 231.766L144.141 230.906L141.125 222.547H142.703L144.812 228.883ZM154.953 222.547L154.992 223.484C155.612 222.755 156.448 222.391 157.5 222.391C158.682 222.391 159.487 222.844 159.914 223.75C160.195 223.344 160.56 223.016 161.008 222.766C161.461 222.516 161.995 222.391 162.609 222.391C164.464 222.391 165.406 223.372 165.438 225.336V231H163.992V225.422C163.992 224.818 163.854 224.367 163.578 224.07C163.302 223.768 162.839 223.617 162.188 223.617C161.651 223.617 161.206 223.779 160.852 224.102C160.497 224.419 160.292 224.849 160.234 225.391V231H158.781V225.461C158.781 224.232 158.18 223.617 156.977 223.617C156.029 223.617 155.38 224.021 155.031 224.828V231H153.586V222.547H154.953ZM170.391 228.883L172.359 222.547H173.906L170.508 232.305C169.982 233.711 169.146 234.414 168 234.414L167.727 234.391L167.188 234.289V233.117L167.578 233.148C168.068 233.148 168.448 233.049 168.719 232.852C168.995 232.654 169.221 232.292 169.398 231.766L169.719 230.906L166.703 222.547H168.281L170.391 228.883ZM174.391 230.242C174.391 229.992 174.464 229.784 174.609 229.617C174.76 229.451 174.984 229.367 175.281 229.367C175.578 229.367 175.802 229.451 175.953 229.617C176.109 229.784 176.188 229.992 176.188 230.242C176.188 230.482 176.109 230.682 175.953 230.844C175.802 231.005 175.578 231.086 175.281 231.086C174.984 231.086 174.76 231.005 174.609 230.844C174.464 230.682 174.391 230.482 174.391 230.242ZM191.141 227.391C191 228.594 190.555 229.523 189.805 230.18C189.06 230.831 188.068 231.156 186.828 231.156C185.484 231.156 184.406 230.674 183.594 229.711C182.786 228.747 182.383 227.458 182.383 225.844V224.75C182.383 223.693 182.57 222.763 182.945 221.961C183.326 221.159 183.862 220.544 184.555 220.117C185.247 219.685 186.049 219.469 186.961 219.469C188.169 219.469 189.138 219.807 189.867 220.484C190.596 221.156 191.021 222.089 191.141 223.281H189.633C189.503 222.375 189.219 221.719 188.781 221.312C188.349 220.906 187.742 220.703 186.961 220.703C186.003 220.703 185.25 221.057 184.703 221.766C184.161 222.474 183.891 223.482 183.891 224.789V225.891C183.891 227.125 184.148 228.107 184.664 228.836C185.18 229.565 185.901 229.93 186.828 229.93C187.661 229.93 188.299 229.742 188.742 229.367C189.19 228.987 189.487 228.328 189.633 227.391H191.141ZM192.586 226.695C192.586 225.867 192.747 225.122 193.07 224.461C193.398 223.799 193.852 223.289 194.43 222.93C195.013 222.57 195.677 222.391 196.422 222.391C197.573 222.391 198.503 222.789 199.211 223.586C199.924 224.383 200.281 225.443 200.281 226.766V226.867C200.281 227.69 200.122 228.43 199.805 229.086C199.492 229.737 199.042 230.245 198.453 230.609C197.87 230.974 197.198 231.156 196.438 231.156C195.292 231.156 194.362 230.758 193.648 229.961C192.94 229.164 192.586 228.109 192.586 226.797V226.695ZM194.039 226.867C194.039 227.805 194.255 228.557 194.688 229.125C195.125 229.693 195.708 229.977 196.438 229.977C197.172 229.977 197.755 229.69 198.188 229.117C198.62 228.539 198.836 227.732 198.836 226.695C198.836 225.768 198.615 225.018 198.172 224.445C197.734 223.867 197.151 223.578 196.422 223.578C195.708 223.578 195.133 223.862 194.695 224.43C194.258 224.997 194.039 225.81 194.039 226.867ZM203.664 231H202.219V219H203.664V231ZM205.602 226.695C205.602 225.867 205.763 225.122 206.086 224.461C206.414 223.799 206.867 223.289 207.445 222.93C208.029 222.57 208.693 222.391 209.438 222.391C210.589 222.391 211.518 222.789 212.227 223.586C212.94 224.383 213.297 225.443 213.297 226.766V226.867C213.297 227.69 213.138 228.43 212.82 229.086C212.508 229.737 212.057 230.245 211.469 230.609C210.885 230.974 210.214 231.156 209.453 231.156C208.307 231.156 207.378 230.758 206.664 229.961C205.956 229.164 205.602 228.109 205.602 226.797V226.695ZM207.055 226.867C207.055 227.805 207.271 228.557 207.703 229.125C208.141 229.693 208.724 229.977 209.453 229.977C210.188 229.977 210.771 229.69 211.203 229.117C211.635 228.539 211.852 227.732 211.852 226.695C211.852 225.768 211.63 225.018 211.188 224.445C210.75 223.867 210.167 223.578 209.438 223.578C208.724 223.578 208.148 223.862 207.711 224.43C207.273 224.997 207.055 225.81 207.055 226.867ZM216.477 222.547L216.523 223.609C217.169 222.797 218.013 222.391 219.055 222.391C220.841 222.391 221.742 223.398 221.758 225.414V231H220.312V225.406C220.307 224.797 220.167 224.346 219.891 224.055C219.62 223.763 219.195 223.617 218.617 223.617C218.148 223.617 217.737 223.742 217.383 223.992C217.029 224.242 216.753 224.57 216.555 224.977V231H215.109V222.547H216.477ZM227.445 231.156C226.299 231.156 225.367 230.781 224.648 230.031C223.93 229.276 223.57 228.268 223.57 227.008V226.742C223.57 225.904 223.729 225.156 224.047 224.5C224.37 223.839 224.818 223.323 225.391 222.953C225.969 222.578 226.594 222.391 227.266 222.391C228.365 222.391 229.219 222.753 229.828 223.477C230.438 224.201 230.742 225.237 230.742 226.586V227.188H225.016C225.036 228.021 225.279 228.695 225.742 229.211C226.211 229.721 226.805 229.977 227.523 229.977C228.034 229.977 228.466 229.872 228.82 229.664C229.174 229.456 229.484 229.18 229.75 228.836L230.633 229.523C229.924 230.612 228.862 231.156 227.445 231.156ZM227.266 223.578C226.682 223.578 226.193 223.792 225.797 224.219C225.401 224.641 225.156 225.234 225.062 226H229.297V225.891C229.255 225.156 229.057 224.589 228.703 224.188C228.349 223.781 227.87 223.578 227.266 223.578ZM233.992 231H232.547V219H233.992V231ZM50.6562 252.703C50.6562 251.385 50.9609 250.339 51.5703 249.562C52.1797 248.781 52.987 248.391 53.9922 248.391C55.0234 248.391 55.8281 248.755 56.4062 249.484L56.4766 248.547H57.7969V256.797C57.7969 257.891 57.4714 258.753 56.8203 259.383C56.1745 260.013 55.3047 260.328 54.2109 260.328C53.6016 260.328 53.0052 260.198 52.4219 259.938C51.8385 259.677 51.3932 259.32 51.0859 258.867L51.8359 258C52.4557 258.766 53.2135 259.148 54.1094 259.148C54.8125 259.148 55.3594 258.951 55.75 258.555C56.1458 258.159 56.3438 257.602 56.3438 256.883V256.156C55.7656 256.823 54.9766 257.156 53.9766 257.156C52.987 257.156 52.1849 256.758 51.5703 255.961C50.9609 255.164 50.6562 254.078 50.6562 252.703ZM52.1094 252.867C52.1094 253.82 52.3047 254.57 52.6953 255.117C53.0859 255.659 53.6328 255.93 54.3359 255.93C55.2474 255.93 55.9167 255.516 56.3438 254.688V250.828C55.901 250.021 55.237 249.617 54.3516 249.617C53.6484 249.617 53.099 249.891 52.7031 250.438C52.3073 250.984 52.1094 251.794 52.1094 252.867ZM64.0703 249.844C63.8516 249.807 63.6146 249.789 63.3594 249.789C62.4115 249.789 61.7682 250.193 61.4297 251V257H59.9844V248.547H61.3906L61.4141 249.523C61.888 248.768 62.5599 248.391 63.4297 248.391C63.7109 248.391 63.9245 248.427 64.0703 248.5V249.844ZM70.3125 257C70.2292 256.833 70.1615 256.536 70.1094 256.109C69.4375 256.807 68.6354 257.156 67.7031 257.156C66.8698 257.156 66.1849 256.922 65.6484 256.453C65.1172 255.979 64.8516 255.38 64.8516 254.656C64.8516 253.776 65.1849 253.094 65.8516 252.609C66.5234 252.12 67.4661 251.875 68.6797 251.875H70.0859V251.211C70.0859 250.706 69.9349 250.305 69.6328 250.008C69.3307 249.706 68.8854 249.555 68.2969 249.555C67.7812 249.555 67.349 249.685 67 249.945C66.651 250.206 66.4766 250.521 66.4766 250.891H65.0234C65.0234 250.469 65.1719 250.062 65.4688 249.672C65.7708 249.276 66.1771 248.964 66.6875 248.734C67.2031 248.505 67.7682 248.391 68.3828 248.391C69.3568 248.391 70.1198 248.635 70.6719 249.125C71.224 249.609 71.5104 250.279 71.5312 251.133V255.023C71.5312 255.799 71.6302 256.417 71.8281 256.875V257H70.3125ZM67.9141 255.898C68.3672 255.898 68.7969 255.781 69.2031 255.547C69.6094 255.312 69.9036 255.008 70.0859 254.633V252.898H68.9531C67.1823 252.898 66.2969 253.417 66.2969 254.453C66.2969 254.906 66.4479 255.26 66.75 255.516C67.0521 255.771 67.4401 255.898 67.9141 255.898ZM76.4609 255.039L78.5547 248.547H80.0312L77 257H75.8984L72.8359 248.547H74.3125L76.4609 255.039ZM82.9922 257H81.5469V248.547H82.9922V257ZM81.4297 246.305C81.4297 246.07 81.5 245.872 81.6406 245.711C81.7865 245.549 82 245.469 82.2812 245.469C82.5625 245.469 82.776 245.549 82.9219 245.711C83.0677 245.872 83.1406 246.07 83.1406 246.305C83.1406 246.539 83.0677 246.734 82.9219 246.891C82.776 247.047 82.5625 247.125 82.2812 247.125C82 247.125 81.7865 247.047 81.6406 246.891C81.5 246.734 81.4297 246.539 81.4297 246.305ZM87.2734 246.5V248.547H88.8516V249.664H87.2734V254.906C87.2734 255.245 87.3438 255.5 87.4844 255.672C87.625 255.839 87.8646 255.922 88.2031 255.922C88.3698 255.922 88.599 255.891 88.8906 255.828V257C88.5104 257.104 88.1406 257.156 87.7812 257.156C87.1354 257.156 86.6484 256.961 86.3203 256.57C85.9922 256.18 85.8281 255.625 85.8281 254.906V249.664H84.2891V248.547H85.8281V246.5H87.2734ZM99.7344 257C99.651 256.833 99.5833 256.536 99.5312 256.109C98.8594 256.807 98.0573 257.156 97.125 257.156C96.2917 257.156 95.6068 256.922 95.0703 256.453C94.5391 255.979 94.2734 255.38 94.2734 254.656C94.2734 253.776 94.6068 253.094 95.2734 252.609C95.9453 252.12 96.888 251.875 98.1016 251.875H99.5078V251.211C99.5078 250.706 99.3568 250.305 99.0547 250.008C98.7526 249.706 98.3073 249.555 97.7188 249.555C97.2031 249.555 96.7708 249.685 96.4219 249.945C96.0729 250.206 95.8984 250.521 95.8984 250.891H94.4453C94.4453 250.469 94.5938 250.062 94.8906 249.672C95.1927 249.276 95.599 248.964 96.1094 248.734C96.625 248.505 97.1901 248.391 97.8047 248.391C98.7786 248.391 99.5417 248.635 100.094 249.125C100.646 249.609 100.932 250.279 100.953 251.133V255.023C100.953 255.799 101.052 256.417 101.25 256.875V257H99.7344ZM97.3359 255.898C97.7891 255.898 98.2188 255.781 98.625 255.547C99.0312 255.312 99.3255 255.008 99.5078 254.633V252.898H98.375C96.6042 252.898 95.7188 253.417 95.7188 254.453C95.7188 254.906 95.8698 255.26 96.1719 255.516C96.474 255.771 96.862 255.898 97.3359 255.898ZM104.586 248.547L104.633 249.609C105.279 248.797 106.122 248.391 107.164 248.391C108.951 248.391 109.852 249.398 109.867 251.414V257H108.422V251.406C108.417 250.797 108.276 250.346 108 250.055C107.729 249.763 107.305 249.617 106.727 249.617C106.258 249.617 105.846 249.742 105.492 249.992C105.138 250.242 104.862 250.57 104.664 250.977V257H103.219V248.547H104.586ZM111.695 252.703C111.695 251.406 112.003 250.365 112.617 249.578C113.232 248.786 114.036 248.391 115.031 248.391C116.021 248.391 116.805 248.729 117.383 249.406V245H118.828V257H117.5L117.43 256.094C116.852 256.802 116.047 257.156 115.016 257.156C114.036 257.156 113.237 256.755 112.617 255.953C112.003 255.151 111.695 254.104 111.695 252.812V252.703ZM113.141 252.867C113.141 253.826 113.339 254.576 113.734 255.117C114.13 255.659 114.677 255.93 115.375 255.93C116.292 255.93 116.961 255.518 117.383 254.695V250.812C116.951 250.016 116.286 249.617 115.391 249.617C114.682 249.617 114.13 249.891 113.734 250.438C113.339 250.984 113.141 251.794 113.141 252.867ZM126.406 248.547L126.445 249.484C127.065 248.755 127.901 248.391 128.953 248.391C130.135 248.391 130.94 248.844 131.367 249.75C131.648 249.344 132.013 249.016 132.461 248.766C132.914 248.516 133.448 248.391 134.062 248.391C135.917 248.391 136.859 249.372 136.891 251.336V257H135.445V251.422C135.445 250.818 135.307 250.367 135.031 250.07C134.755 249.768 134.292 249.617 133.641 249.617C133.104 249.617 132.659 249.779 132.305 250.102C131.951 250.419 131.745 250.849 131.688 251.391V257H130.234V251.461C130.234 250.232 129.633 249.617 128.43 249.617C127.482 249.617 126.833 250.021 126.484 250.828V257H125.039V248.547H126.406ZM138.695 252.695C138.695 251.867 138.857 251.122 139.18 250.461C139.508 249.799 139.961 249.289 140.539 248.93C141.122 248.57 141.786 248.391 142.531 248.391C143.682 248.391 144.612 248.789 145.32 249.586C146.034 250.383 146.391 251.443 146.391 252.766V252.867C146.391 253.69 146.232 254.43 145.914 255.086C145.602 255.737 145.151 256.245 144.562 256.609C143.979 256.974 143.307 257.156 142.547 257.156C141.401 257.156 140.471 256.758 139.758 255.961C139.049 255.164 138.695 254.109 138.695 252.797V252.695ZM140.148 252.867C140.148 253.805 140.365 254.557 140.797 255.125C141.234 255.693 141.818 255.977 142.547 255.977C143.281 255.977 143.865 255.69 144.297 255.117C144.729 254.539 144.945 253.732 144.945 252.695C144.945 251.768 144.724 251.018 144.281 250.445C143.844 249.867 143.26 249.578 142.531 249.578C141.818 249.578 141.242 249.862 140.805 250.43C140.367 250.997 140.148 251.81 140.148 252.867ZM147.82 252.695C147.82 251.867 147.982 251.122 148.305 250.461C148.633 249.799 149.086 249.289 149.664 248.93C150.247 248.57 150.911 248.391 151.656 248.391C152.807 248.391 153.737 248.789 154.445 249.586C155.159 250.383 155.516 251.443 155.516 252.766V252.867C155.516 253.69 155.357 254.43 155.039 255.086C154.727 255.737 154.276 256.245 153.688 256.609C153.104 256.974 152.432 257.156 151.672 257.156C150.526 257.156 149.596 256.758 148.883 255.961C148.174 255.164 147.82 254.109 147.82 252.797V252.695ZM149.273 252.867C149.273 253.805 149.49 254.557 149.922 255.125C150.359 255.693 150.943 255.977 151.672 255.977C152.406 255.977 152.99 255.69 153.422 255.117C153.854 254.539 154.07 253.732 154.07 252.695C154.07 251.768 153.849 251.018 153.406 250.445C152.969 249.867 152.385 249.578 151.656 249.578C150.943 249.578 150.367 249.862 149.93 250.43C149.492 250.997 149.273 251.81 149.273 252.867ZM158.695 248.547L158.742 249.609C159.388 248.797 160.232 248.391 161.273 248.391C163.06 248.391 163.961 249.398 163.977 251.414V257H162.531V251.406C162.526 250.797 162.385 250.346 162.109 250.055C161.839 249.763 161.414 249.617 160.836 249.617C160.367 249.617 159.956 249.742 159.602 249.992C159.247 250.242 158.971 250.57 158.773 250.977V257H157.328V248.547H158.695ZM167.727 257H166.281V245H167.727V257ZM171.617 257H170.172V248.547H171.617V257ZM170.055 246.305C170.055 246.07 170.125 245.872 170.266 245.711C170.411 245.549 170.625 245.469 170.906 245.469C171.188 245.469 171.401 245.549 171.547 245.711C171.693 245.872 171.766 246.07 171.766 246.305C171.766 246.539 171.693 246.734 171.547 246.891C171.401 247.047 171.188 247.125 170.906 247.125C170.625 247.125 170.411 247.047 170.266 246.891C170.125 246.734 170.055 246.539 170.055 246.305ZM173.594 252.703C173.594 251.385 173.898 250.339 174.508 249.562C175.117 248.781 175.924 248.391 176.93 248.391C177.961 248.391 178.766 248.755 179.344 249.484L179.414 248.547H180.734V256.797C180.734 257.891 180.409 258.753 179.758 259.383C179.112 260.013 178.242 260.328 177.148 260.328C176.539 260.328 175.943 260.198 175.359 259.938C174.776 259.677 174.331 259.32 174.023 258.867L174.773 258C175.393 258.766 176.151 259.148 177.047 259.148C177.75 259.148 178.297 258.951 178.688 258.555C179.083 258.159 179.281 257.602 179.281 256.883V256.156C178.703 256.823 177.914 257.156 176.914 257.156C175.924 257.156 175.122 256.758 174.508 255.961C173.898 255.164 173.594 254.078 173.594 252.703ZM175.047 252.867C175.047 253.82 175.242 254.57 175.633 255.117C176.023 255.659 176.57 255.93 177.273 255.93C178.185 255.93 178.854 255.516 179.281 254.688V250.828C178.839 250.021 178.174 249.617 177.289 249.617C176.586 249.617 176.036 249.891 175.641 250.438C175.245 250.984 175.047 251.794 175.047 252.867ZM184.367 249.57C185.008 248.784 185.841 248.391 186.867 248.391C188.654 248.391 189.555 249.398 189.57 251.414V257H188.125V251.406C188.12 250.797 187.979 250.346 187.703 250.055C187.432 249.763 187.008 249.617 186.43 249.617C185.961 249.617 185.549 249.742 185.195 249.992C184.841 250.242 184.565 250.57 184.367 250.977V257H182.922V245H184.367V249.57ZM193.695 246.5V248.547H195.273V249.664H193.695V254.906C193.695 255.245 193.766 255.5 193.906 255.672C194.047 255.839 194.286 255.922 194.625 255.922C194.792 255.922 195.021 255.891 195.312 255.828V257C194.932 257.104 194.562 257.156 194.203 257.156C193.557 257.156 193.07 256.961 192.742 256.57C192.414 256.18 192.25 255.625 192.25 254.906V249.664H190.711V248.547H192.25V246.5H193.695ZM197 256.242C197 255.992 197.073 255.784 197.219 255.617C197.37 255.451 197.594 255.367 197.891 255.367C198.188 255.367 198.411 255.451 198.562 255.617C198.719 255.784 198.797 255.992 198.797 256.242C198.797 256.482 198.719 256.682 198.562 256.844C198.411 257.005 198.188 257.086 197.891 257.086C197.594 257.086 197.37 257.005 197.219 256.844C197.073 256.682 197 256.482 197 256.242Z" fill="#333333"/>
<path id="Instant Valuation" d="M36.9875 165H39.2865V149.16H36.9875V165ZM42.5788 165H44.9108V158.818C44.9108 157.879 45.0465 157.131 45.3178 156.574C45.5965 156.009 45.9631 155.602 46.4178 155.353C46.8725 155.104 47.3748 154.979 47.9248 154.979C48.5555 154.979 49.0688 155.107 49.4648 155.364C49.8608 155.621 50.1651 155.958 50.3778 156.376C50.5905 156.794 50.7335 157.249 50.8068 157.74C50.8875 158.224 50.9278 158.697 50.9278 159.159V165H53.2598V158.4C53.2598 158.033 53.2268 157.608 53.1608 157.124C53.0948 156.64 52.9701 156.145 52.7868 155.639C52.6035 155.133 52.3358 154.667 51.9838 154.242C51.6391 153.809 51.1881 153.461 50.6308 153.197C50.0735 152.933 49.3841 152.801 48.5628 152.801C47.7048 152.801 46.9421 152.955 46.2748 153.263C45.6148 153.571 45.0685 153.996 44.6358 154.539V153.12H42.5788V165ZM60.668 165.319C62.1713 165.319 63.3483 164.985 64.199 164.318C65.057 163.651 65.486 162.73 65.486 161.557C65.486 160.941 65.3576 160.42 65.101 159.995C64.8516 159.57 64.4336 159.203 63.847 158.895C63.2603 158.58 62.4683 158.294 61.471 158.037C60.5396 157.802 59.8356 157.601 59.359 157.432C58.8896 157.256 58.5706 157.08 58.402 156.904C58.2333 156.721 58.149 156.497 58.149 156.233C58.149 155.778 58.3653 155.423 58.798 155.166C59.2306 154.902 59.7953 154.785 60.492 154.814C61.218 154.843 61.8083 155.027 62.263 155.364C62.7176 155.694 62.9853 156.141 63.066 156.706L65.42 156.277C65.288 155.221 64.771 154.378 63.869 153.747C62.967 153.109 61.834 152.79 60.47 152.79C59.0766 152.79 57.9583 153.116 57.115 153.769C56.2716 154.414 55.85 155.276 55.85 156.354C55.85 156.933 55.9746 157.428 56.224 157.839C56.4806 158.242 56.906 158.594 57.5 158.895C58.1013 159.196 58.9116 159.482 59.931 159.753C60.8623 160.002 61.5553 160.211 62.01 160.38C62.4646 160.549 62.7616 160.728 62.901 160.919C63.0476 161.102 63.121 161.344 63.121 161.645C63.121 162.158 62.9156 162.562 62.505 162.855C62.1016 163.148 61.5406 163.295 60.822 163.295C60.03 163.295 59.3663 163.119 58.831 162.767C58.303 162.415 57.9656 161.927 57.819 161.304L55.465 161.667C55.6703 162.826 56.2276 163.724 57.137 164.362C58.0463 165 59.2233 165.319 60.668 165.319ZM74.7179 165V163.053C73.9405 163.17 73.2622 163.196 72.6829 163.13C72.1109 163.057 71.6929 162.796 71.4289 162.349C71.2895 162.107 71.2125 161.81 71.1979 161.458C71.1905 161.106 71.1869 160.692 71.1869 160.215V154.968H74.7179V153.12H71.1869V149.82H68.8769V153.12H66.5999V154.968H68.8769V160.325C68.8769 160.97 68.8842 161.55 68.8989 162.063C68.9209 162.569 69.0602 163.068 69.3169 163.559C69.6102 164.109 70.0392 164.512 70.6039 164.769C71.1685 165.026 71.8102 165.165 72.5289 165.187C73.2475 165.209 73.9772 165.147 74.7179 165ZM80.5776 165.33C82.4696 165.33 83.896 164.644 84.8566 163.273V165H86.8916V157.685C86.8916 157.186 86.8696 156.721 86.8256 156.288C86.7816 155.855 86.6643 155.445 86.4736 155.056C86.107 154.271 85.5276 153.699 84.7356 153.34C83.951 152.973 83.027 152.79 81.9636 152.79C80.5923 152.79 79.4923 153.091 78.6636 153.692C77.835 154.293 77.2776 155.104 76.9916 156.123L79.1366 156.783C79.342 156.123 79.705 155.646 80.2256 155.353C80.7463 155.06 81.3183 154.913 81.9416 154.913C82.8656 154.913 83.533 155.111 83.9436 155.507C84.3616 155.896 84.589 156.501 84.6256 157.322C83.6576 157.454 82.7116 157.593 81.7876 157.74C80.8636 157.879 80.057 158.048 79.3676 158.246C78.451 158.539 77.7543 158.976 77.2776 159.555C76.801 160.134 76.5626 160.871 76.5626 161.766C76.5626 162.411 76.713 163.005 77.0136 163.548C77.3216 164.083 77.7726 164.516 78.3666 164.846C78.968 165.169 79.705 165.33 80.5776 165.33ZM80.9846 163.449C80.2513 163.449 79.7086 163.28 79.3566 162.943C79.012 162.606 78.8396 162.206 78.8396 161.744C78.8396 161.275 78.9936 160.904 79.3016 160.633C79.617 160.362 80.0093 160.145 80.4786 159.984C80.9773 159.837 81.564 159.709 82.2386 159.599C82.9206 159.489 83.709 159.368 84.6036 159.236C84.5963 159.515 84.578 159.826 84.5486 160.171C84.5193 160.516 84.457 160.824 84.3616 161.095C84.2736 161.484 84.0866 161.858 83.8006 162.217C83.522 162.576 83.1443 162.873 82.6676 163.108C82.1983 163.335 81.6373 163.449 80.9846 163.449ZM89.737 165H92.069V158.818C92.069 157.879 92.2047 157.131 92.476 156.574C92.7547 156.009 93.1213 155.602 93.576 155.353C94.0307 155.104 94.533 154.979 95.083 154.979C95.7137 154.979 96.227 155.107 96.623 155.364C97.019 155.621 97.3233 155.958 97.536 156.376C97.7487 156.794 97.8917 157.249 97.965 157.74C98.0457 158.224 98.086 158.697 98.086 159.159V165H100.418V158.4C100.418 158.033 100.385 157.608 100.319 157.124C100.253 156.64 100.128 156.145 99.945 155.639C99.7617 155.133 99.494 154.667 99.142 154.242C98.7973 153.809 98.3463 153.461 97.789 153.197C97.2317 152.933 96.5423 152.801 95.721 152.801C94.863 152.801 94.1003 152.955 93.433 153.263C92.773 153.571 92.2267 153.996 91.794 154.539V153.12H89.737V165ZM110.081 165V163.053C109.304 163.17 108.625 163.196 108.046 163.13C107.474 163.057 107.056 162.796 106.792 162.349C106.653 162.107 106.576 161.81 106.561 161.458C106.554 161.106 106.55 160.692 106.55 160.215V154.968H110.081V153.12H106.55V149.82H104.24V153.12H101.963V154.968H104.24V160.325C104.24 160.97 104.247 161.55 104.262 162.063C104.284 162.569 104.423 163.068 104.68 163.559C104.973 164.109 105.402 164.512 105.967 164.769C106.532 165.026 107.173 165.165 107.892 165.187C108.611 165.209 109.34 165.147 110.081 165ZM120.708 165H124.019L129.167 149.16H126.78L122.336 162.679L117.947 149.16H115.56L120.708 165ZM133.193 165.33C135.085 165.33 136.511 164.644 137.472 163.273V165H139.507V157.685C139.507 157.186 139.485 156.721 139.441 156.288C139.397 155.855 139.28 155.445 139.089 155.056C138.722 154.271 138.143 153.699 137.351 153.34C136.566 152.973 135.642 152.79 134.579 152.79C133.208 152.79 132.108 153.091 131.279 153.692C130.45 154.293 129.893 155.104 129.607 156.123L131.752 156.783C131.957 156.123 132.32 155.646 132.841 155.353C133.362 155.06 133.934 154.913 134.557 154.913C135.481 154.913 136.148 155.111 136.559 155.507C136.977 155.896 137.204 156.501 137.241 157.322C136.273 157.454 135.327 157.593 134.403 157.74C133.479 157.879 132.672 158.048 131.983 158.246C131.066 158.539 130.37 158.976 129.893 159.555C129.416 160.134 129.178 160.871 129.178 161.766C129.178 162.411 129.328 163.005 129.629 163.548C129.937 164.083 130.388 164.516 130.982 164.846C131.583 165.169 132.32 165.33 133.193 165.33ZM133.6 163.449C132.867 163.449 132.324 163.28 131.972 162.943C131.627 162.606 131.455 162.206 131.455 161.744C131.455 161.275 131.609 160.904 131.917 160.633C132.232 160.362 132.625 160.145 133.094 159.984C133.593 159.837 134.179 159.709 134.854 159.599C135.536 159.489 136.324 159.368 137.219 159.236C137.212 159.515 137.193 159.826 137.164 160.171C137.135 160.516 137.072 160.824 136.977 161.095C136.889 161.484 136.702 161.858 136.416 162.217C136.137 162.576 135.76 162.873 135.283 163.108C134.814 163.335 134.253 163.449 133.6 163.449ZM142.583 165H144.882V148.83H142.583V165ZM152.663 165.319C153.521 165.319 154.28 165.165 154.94 164.857C155.607 164.549 156.157 164.124 156.59 163.581V165H158.636V153.12H156.315V159.302C156.315 160.241 156.179 160.992 155.908 161.557C155.636 162.114 155.27 162.518 154.808 162.767C154.353 163.016 153.851 163.141 153.301 163.141C152.67 163.141 152.157 163.013 151.761 162.756C151.365 162.499 151.06 162.162 150.848 161.744C150.635 161.326 150.488 160.875 150.408 160.391C150.334 159.9 150.298 159.423 150.298 158.961V153.12H147.966V159.72C147.966 160.087 147.999 160.512 148.065 160.996C148.131 161.48 148.255 161.975 148.439 162.481C148.622 162.987 148.886 163.456 149.231 163.889C149.583 164.314 150.037 164.659 150.595 164.923C151.152 165.187 151.841 165.319 152.663 165.319ZM165.076 165.33C166.968 165.33 168.394 164.644 169.355 163.273V165H171.39V157.685C171.39 157.186 171.368 156.721 171.324 156.288C171.28 155.855 171.162 155.445 170.972 155.056C170.605 154.271 170.026 153.699 169.234 153.34C168.449 152.973 167.525 152.79 166.462 152.79C165.09 152.79 163.99 153.091 163.162 153.692C162.333 154.293 161.776 155.104 161.49 156.123L163.635 156.783C163.84 156.123 164.203 155.646 164.724 155.353C165.244 155.06 165.816 154.913 166.44 154.913C167.364 154.913 168.031 155.111 168.442 155.507C168.86 155.896 169.087 156.501 169.124 157.322C168.156 157.454 167.21 157.593 166.286 157.74C165.362 157.879 164.555 158.048 163.866 158.246C162.949 158.539 162.252 158.976 161.776 159.555C161.299 160.134 161.061 160.871 161.061 161.766C161.061 162.411 161.211 163.005 161.512 163.548C161.82 164.083 162.271 164.516 162.865 164.846C163.466 165.169 164.203 165.33 165.076 165.33ZM165.483 163.449C164.749 163.449 164.207 163.28 163.855 162.943C163.51 162.606 163.338 162.206 163.338 161.744C163.338 161.275 163.492 160.904 163.8 160.633C164.115 160.362 164.507 160.145 164.977 159.984C165.475 159.837 166.062 159.709 166.737 159.599C167.419 159.489 168.207 159.368 169.102 159.236C169.094 159.515 169.076 159.826 169.047 160.171C169.017 160.516 168.955 160.824 168.86 161.095C168.772 161.484 168.585 161.858 168.299 162.217C168.02 162.576 167.642 162.873 167.166 163.108C166.696 163.335 166.135 163.449 165.483 163.449ZM181.044 165V163.053C180.267 163.17 179.588 163.196 179.009 163.13C178.437 163.057 178.019 162.796 177.755 162.349C177.616 162.107 177.539 161.81 177.524 161.458C177.517 161.106 177.513 160.692 177.513 160.215V154.968H181.044V153.12H177.513V149.82H175.203V153.12H172.926V154.968H175.203V160.325C175.203 160.97 175.21 161.55 175.225 162.063C175.247 162.569 175.386 163.068 175.643 163.559C175.936 164.109 176.365 164.512 176.93 164.769C177.495 165.026 178.136 165.165 178.855 165.187C179.574 165.209 180.303 165.147 181.044 165ZM183.769 151.173H186.068V148.94H183.769V151.173ZM183.769 165H186.068V153.12H183.769V165ZM194.53 165.33C195.711 165.33 196.737 165.066 197.61 164.538C198.483 164.003 199.157 163.266 199.634 162.327C200.118 161.381 200.36 160.288 200.36 159.049C200.36 157.824 200.122 156.743 199.645 155.804C199.168 154.858 198.494 154.121 197.621 153.593C196.748 153.058 195.718 152.79 194.53 152.79C193.364 152.79 192.345 153.054 191.472 153.582C190.599 154.11 189.921 154.843 189.437 155.782C188.953 156.721 188.711 157.81 188.711 159.049C188.711 160.274 188.949 161.359 189.426 162.305C189.903 163.251 190.574 163.992 191.439 164.527C192.312 165.062 193.342 165.33 194.53 165.33ZM194.53 163.163C193.423 163.163 192.583 162.793 192.011 162.052C191.439 161.304 191.153 160.303 191.153 159.049C191.153 157.839 191.428 156.856 191.978 156.101C192.528 155.338 193.379 154.957 194.53 154.957C195.652 154.957 196.495 155.327 197.06 156.068C197.632 156.809 197.918 157.802 197.918 159.049C197.918 160.266 197.636 161.256 197.071 162.019C196.514 162.782 195.667 163.163 194.53 163.163ZM202.766 165H205.098V158.818C205.098 157.879 205.234 157.131 205.505 156.574C205.784 156.009 206.151 155.602 206.605 155.353C207.06 155.104 207.562 154.979 208.112 154.979C208.743 154.979 209.256 155.107 209.652 155.364C210.048 155.621 210.353 155.958 210.565 156.376C210.778 156.794 210.921 157.249 210.994 157.74C211.075 158.224 211.115 158.697 211.115 159.159V165H213.447V158.4C213.447 158.033 213.414 157.608 213.348 157.124C213.282 156.64 213.158 156.145 212.974 155.639C212.791 155.133 212.523 154.667 212.171 154.242C211.827 153.809 211.376 153.461 210.818 153.197C210.261 152.933 209.572 152.801 208.75 152.801C207.892 152.801 207.13 152.955 206.462 153.263C205.802 153.571 205.256 153.996 204.823 154.539V153.12H202.766V165Z" fill="black"/>
<g id="Icon">
<g id="Fill" filter="url(#filter0_dddddd_0_1)">
<rect x="80" y="2" width="90" height="90" rx="20" fill="#4DDFFD"/>
</g>
<path id="Icon_2" d="M119.937 58.4923L118.419 60L113 54.7577L116.882 50.9311C117.669 50.1505 118.661 49.6059 119.745 49.3599C120.829 49.114 121.961 49.1767 123.01 49.5408L123.863 49.8367H129.097C129.319 49.8366 129.538 49.8807 129.742 49.9663C129.945 50.0519 130.13 50.1773 130.284 50.3351C130.438 50.4928 130.559 50.6797 130.639 50.8847C130.719 51.0896 130.756 51.3084 130.749 51.5281C130.724 51.9623 130.531 52.37 130.21 52.6662C129.889 52.9623 129.466 53.124 129.028 53.1173H125.888C125.718 53.1173 125.554 53.1845 125.434 53.3041C125.313 53.4237 125.246 53.586 125.246 53.7551C125.246 53.9242 125.313 54.0865 125.434 54.2061C125.554 54.3257 125.718 54.3929 125.888 54.3929H129.038C129.806 54.3966 130.547 54.1068 131.106 53.5835C131.665 53.0602 132 52.3434 132.042 51.5816C132.042 51.5689 132.042 51.5561 132.042 51.5408L134.955 48.2832C135.251 47.9422 135.668 47.7275 136.12 47.6838C136.571 47.6401 137.022 47.7707 137.378 48.0485C137.555 48.1936 137.7 48.3724 137.806 48.5743C137.912 48.7762 137.976 48.997 137.994 49.2239C138.013 49.4507 137.985 49.6789 137.914 49.895C137.842 50.1111 137.727 50.3108 137.576 50.4821L131.759 57.1148C131.375 57.5517 130.901 57.9017 130.369 58.1411C129.837 58.3806 129.26 58.5038 128.676 58.5026L119.937 58.4923ZM131.949 44.0714C131.949 43.7501 131.821 43.4418 131.592 43.2146C131.363 42.9874 131.052 42.8597 130.729 42.8597H128.93V41.074C128.916 40.7626 128.781 40.4686 128.554 40.2533C128.327 40.038 128.025 39.9178 127.711 39.9178C127.397 39.9178 127.095 40.038 126.868 40.2533C126.641 40.4686 126.506 40.7626 126.492 41.074V42.8597H124.693C124.528 42.8522 124.364 42.8779 124.209 42.9354C124.055 42.9928 123.914 43.0808 123.794 43.1939C123.675 43.307 123.58 43.443 123.515 43.5936C123.45 43.7442 123.417 43.9063 123.417 44.0702C123.417 44.234 123.45 44.3961 123.515 44.5467C123.58 44.6973 123.675 44.8333 123.794 44.9464C123.914 45.0596 124.055 45.1475 124.209 45.2049C124.364 45.2624 124.528 45.2881 124.693 45.2806H126.492V47.0663C126.506 47.3777 126.641 47.6717 126.868 47.887C127.095 48.1023 127.397 48.2225 127.711 48.2225C128.025 48.2225 128.327 48.1023 128.554 47.887C128.781 47.6717 128.916 47.3777 128.93 47.0663V45.2806H130.729C131.052 45.2806 131.362 45.1533 131.591 44.9266C131.82 44.6999 131.949 44.3924 131.949 44.0714ZM120.248 37.3571V38.6735H118.925C118.686 38.6735 118.458 38.7675 118.289 38.935C118.12 39.1024 118.026 39.3295 118.026 39.5663C118.026 39.8031 118.12 40.0302 118.289 40.1977C118.458 40.3651 118.686 40.4592 118.925 40.4592H120.251V41.7755C120.251 42.0123 120.346 42.2394 120.514 42.4069C120.683 42.5743 120.912 42.6684 121.15 42.6684C121.389 42.6684 121.617 42.5743 121.786 42.4069C121.955 42.2394 122.049 42.0123 122.049 41.7755V40.4541H123.367C123.606 40.4541 123.835 40.36 124.003 40.1926C124.172 40.0251 124.267 39.798 124.267 39.5612C124.267 39.3244 124.172 39.0973 124.003 38.9299C123.835 38.7624 123.606 38.6684 123.367 38.6684H122.042V37.3571C122.042 37.1203 121.947 36.8932 121.778 36.7258C121.61 36.5584 121.381 36.4643 121.142 36.4643C120.904 36.4643 120.675 36.5584 120.506 36.7258C120.338 36.8932 120.243 37.1203 120.243 37.3571H120.248ZM131.592 35C131.388 35 131.192 35.0806 131.047 35.2242C130.902 35.3677 130.821 35.5623 130.821 35.7653V36.898H129.68C129.476 36.898 129.28 36.9786 129.135 37.1221C128.991 37.2656 128.91 37.4603 128.91 37.6633C128.91 37.8662 128.991 38.0609 129.135 38.2044C129.28 38.3479 129.476 38.4286 129.68 38.4286H130.821V39.5612C130.821 39.7642 130.902 39.9589 131.047 40.1024C131.192 40.2459 131.388 40.3265 131.592 40.3265C131.797 40.3265 131.993 40.2459 132.137 40.1024C132.282 39.9589 132.363 39.7642 132.363 39.5612V38.4286H133.504C133.605 38.4286 133.705 38.4088 133.799 38.3703C133.892 38.3319 133.977 38.2755 134.049 38.2044C134.12 38.1334 134.177 38.049 134.216 37.9561C134.255 37.8633 134.275 37.7638 134.275 37.6633C134.275 37.5628 134.255 37.4632 134.216 37.3704C134.177 37.2775 134.12 37.1932 134.049 37.1221C133.977 37.051 133.892 36.9947 133.799 36.9562C133.705 36.9178 133.605 36.898 133.504 36.898H132.363V35.7653C132.363 35.5623 132.282 35.3677 132.137 35.2242C131.993 35.0806 131.797 35 131.592 35Z" fill="white"/>
</g>
</g>
<g id="Group 19">
<circle id="Ellipse 3" cx="2.5" cy="48.5" r="5.5" fill="#4DDFFD"/>
</g>
<g id="Group 20">
<path id="Vector 709" opacity="0.2" d="M427 48.5H235.5" stroke="url(#paint0_linear_0_1)" stroke-width="3" stroke-dasharray="5 10"/>
<circle id="Ellipse 3_2" cx="5.5" cy="5.5" r="5.5" transform="matrix(-1 0 0 1 237 43)" fill="#4DDFFD"/>
</g>
</g>
</g>
<defs>
<filter id="filter0_dddddd_0_1" x="0" y="0.703704" width="250" height="271.296" filterUnits="userSpaceOnUse" color-interpolation-filters="sRGB">
<feFlood flood-opacity="0" result="BackgroundImageFix"/>
<feColorMatrix in="SourceAlpha" type="matrix" values="0 0 0 0 0 0 0 0 0 0 0 0 0 0 0 0 0 0 127 0" result="hardAlpha"/>
<feOffset dy="1.85185"/>
<feGaussianBlur stdDeviation="1.57407"/>
<feColorMatrix type="matrix" values="0 0 0 0 0.301961 0 0 0 0 0.87451 0 0 0 0 0.992157 0 0 0 0.0168519 0"/>
<feBlend mode="normal" in2="BackgroundImageFix" result="effect1_dropShadow_0_1"/>
<feColorMatrix in="SourceAlpha" type="matrix" values="0 0 0 0 0 0 0 0 0 0 0 0 0 0 0 0 0 0 127 0" result="hardAlpha"/>
<feOffset dy="8.14815"/>
<feGaussianBlur stdDeviation="3.25926"/>
<feColorMatrix type="matrix" values="0 0 0 0 0.301961 0 0 0 0 0.87451 0 0 0 0 0.992157 0 0 0 0.0274815 0"/>
<feBlend mode="normal" in2="effect1_dropShadow_0_1" result="effect2_dropShadow_0_1"/>
<feColorMatrix in="SourceAlpha" type="matrix" values="0 0 0 0 0 0 0 0 0 0 0 0 0 0 0 0 0 0 127 0" result="hardAlpha"/>
<feOffset dy="20"/>
<feGaussianBlur stdDeviation="6.5"/>
<feColorMatrix type="matrix" values="0 0 0 0 0.301961 0 0 0 0 0.87451 0 0 0 0 0.992157 0 0 0 0.035 0"/>
<feBlend mode="normal" in2="effect2_dropShadow_0_1" result="effect3_dropShadow_0_1"/>
<feColorMatrix in="SourceAlpha" type="matrix" values="0 0 0 0 0 0 0 0 0 0 0 0 0 0 0 0 0 0 127 0" result="hardAlpha"/>
<feOffset dy="38.5185"/>
<feGaussianBlur stdDeviation="12.7407"/>
<feColorMatrix type="matrix" values="0 0 0 0 0.301961 0 0 0 0 0.87451 0 0 0 0 0.992157 0 0 0 0.0425185 0"/>
<feBlend mode="normal" in2="effect3_dropShadow_0_1" result="effect4_dropShadow_0_1"/>
<feColorMatrix in="SourceAlpha" type="matrix" values="0 0 0 0 0 0 0 0 0 0 0 0 0 0 0 0 0 0 127 0" result="hardAlpha"/>
<feOffset dy="64.8148"/>
<feGaussianBlur stdDeviation="23.4259"/>
<feColorMatrix type="matrix" values="0 0 0 0 0.301961 0 0 0 0 0.87451 0 0 0 0 0.992157 0 0 0 0.0531481 0"/>
<feBlend mode="normal" in2="effect4_dropShadow_0_1" result="effect5_dropShadow_0_1"/>
<feColorMatrix in="SourceAlpha" type="matrix" values="0 0 0 0 0 0 0 0 0 0 0 0 0 0 0 0 0 0 127 0" result="hardAlpha"/>
<feOffset dy="100"/>
<feGaussianBlur stdDeviation="40"/>
<feColorMatrix type="matrix" values="0 0 0 0 0.301961 0 0 0 0 0.87451 0 0 0 0 0.992157 0 0 0 0.07 0"/>
<feBlend mode="normal" in2="effect5_dropShadow_0_1" result="effect6_dropShadow_0_1"/>
<feBlend mode="normal" in="SourceGraphic" in2="effect6_dropShadow_0_1" result="shape"/>
</filter>
<linearGradient id="paint0_linear_0_1" x1="422" y1="49.9994" x2="230.5" y2="50.4996" gradientUnits="userSpaceOnUse">
<stop stop-color="#9672FF"/>
<stop offset="1" stop-color="#4DDFFD"/>
</linearGradient>
<clipPath id="clip0_0_1">
<rect width="1440" height="5169" fill="white" transform="translate(-595 -1194)"/>
</clipPath>
</defs>
</svg>
