<svg width="250" height="272" viewBox="0 0 250 272" fill="none" xmlns="http://www.w3.org/2000/svg">
<rect width="250" height="272" fill="#E5E5E5"/>
<g id="Real Estate Landing Page UI" clip-path="url(#clip0_0_1)">
<rect width="1440" height="5169" transform="translate(-175 -1194)" fill="white"/>
<g id="How it works">
<g id="Card 01">
<path id="Wonder twenty hunted and put income set desire expect. Am cottage calling." d="M20.3047 201.414L20.5234 202.914L20.8438 201.562L23.0938 193.625H24.3594L26.5547 201.562L26.8672 202.938L27.1094 201.406L28.875 193.625H30.3828L27.625 205H26.2578L23.9141 196.711L23.7344 195.844L23.5547 196.711L21.125 205H19.7578L17.0078 193.625H18.5078L20.3047 201.414ZM31.1953 200.695C31.1953 199.867 31.3568 199.122 31.6797 198.461C32.0078 197.799 32.4609 197.289 33.0391 196.93C33.6224 196.57 34.2865 196.391 35.0312 196.391C36.1823 196.391 37.112 196.789 37.8203 197.586C38.5339 198.383 38.8906 199.443 38.8906 200.766V200.867C38.8906 201.69 38.7318 202.43 38.4141 203.086C38.1016 203.737 37.651 204.245 37.0625 204.609C36.4792 204.974 35.8073 205.156 35.0469 205.156C33.901 205.156 32.9714 204.758 32.2578 203.961C31.5495 203.164 31.1953 202.109 31.1953 200.797V200.695ZM32.6484 200.867C32.6484 201.805 32.8646 202.557 33.2969 203.125C33.7344 203.693 34.3177 203.977 35.0469 203.977C35.7812 203.977 36.3646 203.69 36.7969 203.117C37.2292 202.539 37.4453 201.732 37.4453 200.695C37.4453 199.768 37.224 199.018 36.7812 198.445C36.3438 197.867 35.7604 197.578 35.0312 197.578C34.3177 197.578 33.7422 197.862 33.3047 198.43C32.8672 198.997 32.6484 199.81 32.6484 200.867ZM42.0703 196.547L42.1172 197.609C42.763 196.797 43.6068 196.391 44.6484 196.391C46.4349 196.391 47.3359 197.398 47.3516 199.414V205H45.9062V199.406C45.901 198.797 45.7604 198.346 45.4844 198.055C45.2135 197.763 44.7891 197.617 44.2109 197.617C43.7422 197.617 43.3307 197.742 42.9766 197.992C42.6224 198.242 42.3464 198.57 42.1484 198.977V205H40.7031V196.547H42.0703ZM49.1797 200.703C49.1797 199.406 49.487 198.365 50.1016 197.578C50.7161 196.786 51.5208 196.391 52.5156 196.391C53.5052 196.391 54.2891 196.729 54.8672 197.406V193H56.3125V205H54.9844L54.9141 204.094C54.3359 204.802 53.5312 205.156 52.5 205.156C51.5208 205.156 50.7214 204.755 50.1016 203.953C49.487 203.151 49.1797 202.104 49.1797 200.812V200.703ZM50.625 200.867C50.625 201.826 50.8229 202.576 51.2188 203.117C51.6146 203.659 52.1615 203.93 52.8594 203.93C53.776 203.93 54.4453 203.518 54.8672 202.695V198.812C54.4349 198.016 53.7708 197.617 52.875 197.617C52.1667 197.617 51.6146 197.891 51.2188 198.438C50.8229 198.984 50.625 199.794 50.625 200.867ZM62.0703 205.156C60.9245 205.156 59.9922 204.781 59.2734 204.031C58.5547 203.276 58.1953 202.268 58.1953 201.008V200.742C58.1953 199.904 58.3542 199.156 58.6719 198.5C58.9948 197.839 59.4427 197.323 60.0156 196.953C60.5938 196.578 61.2188 196.391 61.8906 196.391C62.9896 196.391 63.8438 196.753 64.4531 197.477C65.0625 198.201 65.3672 199.237 65.3672 200.586V201.188H59.6406C59.6615 202.021 59.9036 202.695 60.3672 203.211C60.8359 203.721 61.4297 203.977 62.1484 203.977C62.6589 203.977 63.0911 203.872 63.4453 203.664C63.7995 203.456 64.1094 203.18 64.375 202.836L65.2578 203.523C64.5495 204.612 63.487 205.156 62.0703 205.156ZM61.8906 197.578C61.3073 197.578 60.8177 197.792 60.4219 198.219C60.026 198.641 59.7812 199.234 59.6875 200H63.9219V199.891C63.8802 199.156 63.6823 198.589 63.3281 198.188C62.974 197.781 62.4948 197.578 61.8906 197.578ZM71.1328 197.844C70.9141 197.807 70.6771 197.789 70.4219 197.789C69.474 197.789 68.8307 198.193 68.4922 199V205H67.0469V196.547H68.4531L68.4766 197.523C68.9505 196.768 69.6224 196.391 70.4922 196.391C70.7734 196.391 70.987 196.427 71.1328 196.5V197.844ZM78.3984 194.5V196.547H79.9766V197.664H78.3984V202.906C78.3984 203.245 78.4688 203.5 78.6094 203.672C78.75 203.839 78.9896 203.922 79.3281 203.922C79.4948 203.922 79.724 203.891 80.0156 203.828V205C79.6354 205.104 79.2656 205.156 78.9062 205.156C78.2604 205.156 77.7734 204.961 77.4453 204.57C77.1172 204.18 76.9531 203.625 76.9531 202.906V197.664H75.4141V196.547H76.9531V194.5H78.3984ZM89.1562 203.008L90.7812 196.547H92.2266L89.7656 205H88.5938L86.5391 198.594L84.5391 205H83.3672L80.9141 196.547H82.3516L84.0156 202.875L85.9844 196.547H87.1484L89.1562 203.008ZM97.2109 205.156C96.0651 205.156 95.1328 204.781 94.4141 204.031C93.6953 203.276 93.3359 202.268 93.3359 201.008V200.742C93.3359 199.904 93.4948 199.156 93.8125 198.5C94.1354 197.839 94.5833 197.323 95.1562 196.953C95.7344 196.578 96.3594 196.391 97.0312 196.391C98.1302 196.391 98.9844 196.753 99.5938 197.477C100.203 198.201 100.508 199.237 100.508 200.586V201.188H94.7812C94.8021 202.021 95.0443 202.695 95.5078 203.211C95.9766 203.721 96.5703 203.977 97.2891 203.977C97.7995 203.977 98.2318 203.872 98.5859 203.664C98.9401 203.456 99.25 203.18 99.5156 202.836L100.398 203.523C99.6901 204.612 98.6276 205.156 97.2109 205.156ZM97.0312 197.578C96.4479 197.578 95.9583 197.792 95.5625 198.219C95.1667 198.641 94.9219 199.234 94.8281 200H99.0625V199.891C99.0208 199.156 98.8229 198.589 98.4688 198.188C98.1146 197.781 97.6354 197.578 97.0312 197.578ZM103.555 196.547L103.602 197.609C104.247 196.797 105.091 196.391 106.133 196.391C107.919 196.391 108.82 197.398 108.836 199.414V205H107.391V199.406C107.385 198.797 107.245 198.346 106.969 198.055C106.698 197.763 106.273 197.617 105.695 197.617C105.227 197.617 104.815 197.742 104.461 197.992C104.107 198.242 103.831 198.57 103.633 198.977V205H102.188V196.547H103.555ZM112.977 194.5V196.547H114.555V197.664H112.977V202.906C112.977 203.245 113.047 203.5 113.188 203.672C113.328 203.839 113.568 203.922 113.906 203.922C114.073 203.922 114.302 203.891 114.594 203.828V205C114.214 205.104 113.844 205.156 113.484 205.156C112.839 205.156 112.352 204.961 112.023 204.57C111.695 204.18 111.531 203.625 111.531 202.906V197.664H109.992V196.547H111.531V194.5H112.977ZM119.016 202.883L120.984 196.547H122.531L119.133 206.305C118.607 207.711 117.771 208.414 116.625 208.414L116.352 208.391L115.812 208.289V207.117L116.203 207.148C116.693 207.148 117.073 207.049 117.344 206.852C117.62 206.654 117.846 206.292 118.023 205.766L118.344 204.906L115.328 196.547H116.906L119.016 202.883ZM129.242 197.57C129.883 196.784 130.716 196.391 131.742 196.391C133.529 196.391 134.43 197.398 134.445 199.414V205H133V199.406C132.995 198.797 132.854 198.346 132.578 198.055C132.307 197.763 131.883 197.617 131.305 197.617C130.836 197.617 130.424 197.742 130.07 197.992C129.716 198.242 129.44 198.57 129.242 198.977V205H127.797V193H129.242V197.57ZM141.828 204.164C141.266 204.826 140.44 205.156 139.352 205.156C138.451 205.156 137.763 204.896 137.289 204.375C136.82 203.849 136.583 203.073 136.578 202.047V196.547H138.023V202.008C138.023 203.289 138.544 203.93 139.586 203.93C140.69 203.93 141.424 203.518 141.789 202.695V196.547H143.234V205H141.859L141.828 204.164ZM146.805 196.547L146.852 197.609C147.497 196.797 148.341 196.391 149.383 196.391C151.169 196.391 152.07 197.398 152.086 199.414V205H150.641V199.406C150.635 198.797 150.495 198.346 150.219 198.055C149.948 197.763 149.523 197.617 148.945 197.617C148.477 197.617 148.065 197.742 147.711 197.992C147.357 198.242 147.081 198.57 146.883 198.977V205H145.438V196.547H146.805ZM156.227 194.5V196.547H157.805V197.664H156.227V202.906C156.227 203.245 156.297 203.5 156.438 203.672C156.578 203.839 156.818 203.922 157.156 203.922C157.323 203.922 157.552 203.891 157.844 203.828V205C157.464 205.104 157.094 205.156 156.734 205.156C156.089 205.156 155.602 204.961 155.273 204.57C154.945 204.18 154.781 203.625 154.781 202.906V197.664H153.242V196.547H154.781V194.5H156.227ZM163.008 205.156C161.862 205.156 160.93 204.781 160.211 204.031C159.492 203.276 159.133 202.268 159.133 201.008V200.742C159.133 199.904 159.292 199.156 159.609 198.5C159.932 197.839 160.38 197.323 160.953 196.953C161.531 196.578 162.156 196.391 162.828 196.391C163.927 196.391 164.781 196.753 165.391 197.477C166 198.201 166.305 199.237 166.305 200.586V201.188H160.578C160.599 202.021 160.841 202.695 161.305 203.211C161.773 203.721 162.367 203.977 163.086 203.977C163.596 203.977 164.029 203.872 164.383 203.664C164.737 203.456 165.047 203.18 165.312 202.836L166.195 203.523C165.487 204.612 164.424 205.156 163.008 205.156ZM162.828 197.578C162.245 197.578 161.755 197.792 161.359 198.219C160.964 198.641 160.719 199.234 160.625 200H164.859V199.891C164.818 199.156 164.62 198.589 164.266 198.188C163.911 197.781 163.432 197.578 162.828 197.578ZM167.633 200.703C167.633 199.406 167.94 198.365 168.555 197.578C169.169 196.786 169.974 196.391 170.969 196.391C171.958 196.391 172.742 196.729 173.32 197.406V193H174.766V205H173.438L173.367 204.094C172.789 204.802 171.984 205.156 170.953 205.156C169.974 205.156 169.174 204.755 168.555 203.953C167.94 203.151 167.633 202.104 167.633 200.812V200.703ZM169.078 200.867C169.078 201.826 169.276 202.576 169.672 203.117C170.068 203.659 170.615 203.93 171.312 203.93C172.229 203.93 172.898 203.518 173.32 202.695V198.812C172.888 198.016 172.224 197.617 171.328 197.617C170.62 197.617 170.068 197.891 169.672 198.438C169.276 198.984 169.078 199.794 169.078 200.867ZM186.203 205C186.12 204.833 186.052 204.536 186 204.109C185.328 204.807 184.526 205.156 183.594 205.156C182.76 205.156 182.076 204.922 181.539 204.453C181.008 203.979 180.742 203.38 180.742 202.656C180.742 201.776 181.076 201.094 181.742 200.609C182.414 200.12 183.357 199.875 184.57 199.875H185.977V199.211C185.977 198.706 185.826 198.305 185.523 198.008C185.221 197.706 184.776 197.555 184.188 197.555C183.672 197.555 183.24 197.685 182.891 197.945C182.542 198.206 182.367 198.521 182.367 198.891H180.914C180.914 198.469 181.062 198.062 181.359 197.672C181.661 197.276 182.068 196.964 182.578 196.734C183.094 196.505 183.659 196.391 184.273 196.391C185.247 196.391 186.01 196.635 186.562 197.125C187.115 197.609 187.401 198.279 187.422 199.133V203.023C187.422 203.799 187.521 204.417 187.719 204.875V205H186.203ZM183.805 203.898C184.258 203.898 184.688 203.781 185.094 203.547C185.5 203.312 185.794 203.008 185.977 202.633V200.898H184.844C183.073 200.898 182.188 201.417 182.188 202.453C182.188 202.906 182.339 203.26 182.641 203.516C182.943 203.771 183.331 203.898 183.805 203.898ZM191.055 196.547L191.102 197.609C191.747 196.797 192.591 196.391 193.633 196.391C195.419 196.391 196.32 197.398 196.336 199.414V205H194.891V199.406C194.885 198.797 194.745 198.346 194.469 198.055C194.198 197.763 193.773 197.617 193.195 197.617C192.727 197.617 192.315 197.742 191.961 197.992C191.607 198.242 191.331 198.57 191.133 198.977V205H189.688V196.547H191.055ZM198.164 200.703C198.164 199.406 198.471 198.365 199.086 197.578C199.701 196.786 200.505 196.391 201.5 196.391C202.49 196.391 203.273 196.729 203.852 197.406V193H205.297V205H203.969L203.898 204.094C203.32 204.802 202.516 205.156 201.484 205.156C200.505 205.156 199.706 204.755 199.086 203.953C198.471 203.151 198.164 202.104 198.164 200.812V200.703ZM199.609 200.867C199.609 201.826 199.807 202.576 200.203 203.117C200.599 203.659 201.146 203.93 201.844 203.93C202.76 203.93 203.43 203.518 203.852 202.695V198.812C203.419 198.016 202.755 197.617 201.859 197.617C201.151 197.617 200.599 197.891 200.203 198.438C199.807 198.984 199.609 199.794 199.609 200.867ZM218.656 200.867C218.656 202.154 218.362 203.19 217.773 203.977C217.185 204.763 216.388 205.156 215.383 205.156C214.357 205.156 213.549 204.831 212.961 204.18V208.25H211.516V196.547H212.836L212.906 197.484C213.495 196.755 214.312 196.391 215.359 196.391C216.375 196.391 217.177 196.773 217.766 197.539C218.359 198.305 218.656 199.37 218.656 200.734V200.867ZM217.211 200.703C217.211 199.75 217.008 198.997 216.602 198.445C216.195 197.893 215.638 197.617 214.93 197.617C214.055 197.617 213.398 198.005 212.961 198.781V202.82C213.393 203.591 214.055 203.977 214.945 203.977C215.638 203.977 216.188 203.703 216.594 203.156C217.005 202.604 217.211 201.786 217.211 200.703ZM225.719 204.164C225.156 204.826 224.331 205.156 223.242 205.156C222.341 205.156 221.654 204.896 221.18 204.375C220.711 203.849 220.474 203.073 220.469 202.047V196.547H221.914V202.008C221.914 203.289 222.435 203.93 223.477 203.93C224.581 203.93 225.315 203.518 225.68 202.695V196.547H227.125V205H225.75L225.719 204.164ZM231.289 194.5V196.547H232.867V197.664H231.289V202.906C231.289 203.245 231.359 203.5 231.5 203.672C231.641 203.839 231.88 203.922 232.219 203.922C232.385 203.922 232.615 203.891 232.906 203.828V205C232.526 205.104 232.156 205.156 231.797 205.156C231.151 205.156 230.664 204.961 230.336 204.57C230.008 204.18 229.844 203.625 229.844 202.906V197.664H228.305V196.547H229.844V194.5H231.289ZM22.5781 231H21.1328V222.547H22.5781V231ZM21.0156 220.305C21.0156 220.07 21.0859 219.872 21.2266 219.711C21.3724 219.549 21.5859 219.469 21.8672 219.469C22.1484 219.469 22.362 219.549 22.5078 219.711C22.6536 219.872 22.7266 220.07 22.7266 220.305C22.7266 220.539 22.6536 220.734 22.5078 220.891C22.362 221.047 22.1484 221.125 21.8672 221.125C21.5859 221.125 21.3724 221.047 21.2266 220.891C21.0859 220.734 21.0156 220.539 21.0156 220.305ZM26.2656 222.547L26.3125 223.609C26.9583 222.797 27.8021 222.391 28.8438 222.391C30.6302 222.391 31.5312 223.398 31.5469 225.414V231H30.1016V225.406C30.0964 224.797 29.9557 224.346 29.6797 224.055C29.4089 223.763 28.9844 223.617 28.4062 223.617C27.9375 223.617 27.526 223.742 27.1719 223.992C26.8177 224.242 26.5417 224.57 26.3438 224.977V231H24.8984V222.547H26.2656ZM37.1172 229.977C37.6328 229.977 38.0833 229.82 38.4688 229.508C38.8542 229.195 39.0677 228.805 39.1094 228.336H40.4766C40.4505 228.82 40.2839 229.281 39.9766 229.719C39.6693 230.156 39.2578 230.505 38.7422 230.766C38.2318 231.026 37.6901 231.156 37.1172 231.156C35.9661 231.156 35.0495 230.773 34.3672 230.008C33.6901 229.237 33.3516 228.185 33.3516 226.852V226.609C33.3516 225.786 33.5026 225.055 33.8047 224.414C34.1068 223.773 34.5391 223.276 35.1016 222.922C35.6693 222.568 36.3385 222.391 37.1094 222.391C38.0573 222.391 38.8438 222.674 39.4688 223.242C40.099 223.81 40.4349 224.547 40.4766 225.453H39.1094C39.0677 224.906 38.8594 224.458 38.4844 224.109C38.1146 223.755 37.6562 223.578 37.1094 223.578C36.375 223.578 35.8047 223.844 35.3984 224.375C34.9974 224.901 34.7969 225.664 34.7969 226.664V226.938C34.7969 227.911 34.9974 228.661 35.3984 229.188C35.7995 229.714 36.3724 229.977 37.1172 229.977ZM41.7188 226.695C41.7188 225.867 41.8802 225.122 42.2031 224.461C42.5312 223.799 42.9844 223.289 43.5625 222.93C44.1458 222.57 44.8099 222.391 45.5547 222.391C46.7057 222.391 47.6354 222.789 48.3438 223.586C49.0573 224.383 49.4141 225.443 49.4141 226.766V226.867C49.4141 227.69 49.2552 228.43 48.9375 229.086C48.625 229.737 48.1745 230.245 47.5859 230.609C47.0026 230.974 46.3307 231.156 45.5703 231.156C44.4245 231.156 43.4948 230.758 42.7812 229.961C42.0729 229.164 41.7188 228.109 41.7188 226.797V226.695ZM43.1719 226.867C43.1719 227.805 43.388 228.557 43.8203 229.125C44.2578 229.693 44.8411 229.977 45.5703 229.977C46.3047 229.977 46.888 229.69 47.3203 229.117C47.7526 228.539 47.9688 227.732 47.9688 226.695C47.9688 225.768 47.7474 225.018 47.3047 224.445C46.8672 223.867 46.2839 223.578 45.5547 223.578C44.8411 223.578 44.2656 223.862 43.8281 224.43C43.3906 224.997 43.1719 225.81 43.1719 226.867ZM52.5859 222.547L52.625 223.484C53.2448 222.755 54.0807 222.391 55.1328 222.391C56.3151 222.391 57.1198 222.844 57.5469 223.75C57.8281 223.344 58.1927 223.016 58.6406 222.766C59.0938 222.516 59.6276 222.391 60.2422 222.391C62.0964 222.391 63.0391 223.372 63.0703 225.336V231H61.625V225.422C61.625 224.818 61.487 224.367 61.2109 224.07C60.9349 223.768 60.4714 223.617 59.8203 223.617C59.2839 223.617 58.8385 223.779 58.4844 224.102C58.1302 224.419 57.9245 224.849 57.8672 225.391V231H56.4141V225.461C56.4141 224.232 55.8125 223.617 54.6094 223.617C53.6615 223.617 53.013 224.021 52.6641 224.828V231H51.2188V222.547H52.5859ZM68.7656 231.156C67.6198 231.156 66.6875 230.781 65.9688 230.031C65.25 229.276 64.8906 228.268 64.8906 227.008V226.742C64.8906 225.904 65.0495 225.156 65.3672 224.5C65.6901 223.839 66.138 223.323 66.7109 222.953C67.2891 222.578 67.9141 222.391 68.5859 222.391C69.6849 222.391 70.5391 222.753 71.1484 223.477C71.7578 224.201 72.0625 225.237 72.0625 226.586V227.188H66.3359C66.3568 228.021 66.599 228.695 67.0625 229.211C67.5312 229.721 68.125 229.977 68.8438 229.977C69.3542 229.977 69.7865 229.872 70.1406 229.664C70.4948 229.456 70.8047 229.18 71.0703 228.836L71.9531 229.523C71.2448 230.612 70.1823 231.156 68.7656 231.156ZM68.5859 223.578C68.0026 223.578 67.513 223.792 67.1172 224.219C66.7214 224.641 66.4766 225.234 66.3828 226H70.6172V225.891C70.5755 225.156 70.3776 224.589 70.0234 224.188C69.6693 223.781 69.1901 223.578 68.5859 223.578ZM82.6328 228.758C82.6328 228.367 82.4844 228.065 82.1875 227.852C81.8958 227.633 81.3828 227.445 80.6484 227.289C79.9193 227.133 79.3385 226.945 78.9062 226.727C78.4792 226.508 78.1615 226.247 77.9531 225.945C77.75 225.643 77.6484 225.284 77.6484 224.867C77.6484 224.174 77.9401 223.589 78.5234 223.109C79.112 222.63 79.862 222.391 80.7734 222.391C81.7318 222.391 82.5078 222.638 83.1016 223.133C83.7005 223.628 84 224.26 84 225.031H82.5469C82.5469 224.635 82.3776 224.294 82.0391 224.008C81.7057 223.721 81.2839 223.578 80.7734 223.578C80.2474 223.578 79.8359 223.693 79.5391 223.922C79.2422 224.151 79.0938 224.451 79.0938 224.82C79.0938 225.169 79.2318 225.432 79.5078 225.609C79.7839 225.786 80.2812 225.956 81 226.117C81.724 226.279 82.3099 226.471 82.7578 226.695C83.2057 226.919 83.5365 227.19 83.75 227.508C83.9688 227.82 84.0781 228.203 84.0781 228.656C84.0781 229.411 83.776 230.018 83.1719 230.477C82.5677 230.93 81.7839 231.156 80.8203 231.156C80.1432 231.156 79.5443 231.036 79.0234 230.797C78.5026 230.557 78.0938 230.224 77.7969 229.797C77.5052 229.365 77.3594 228.898 77.3594 228.398H78.8047C78.8307 228.883 79.0234 229.268 79.3828 229.555C79.7474 229.836 80.2266 229.977 80.8203 229.977C81.3672 229.977 81.8047 229.867 82.1328 229.648C82.4661 229.424 82.6328 229.128 82.6328 228.758ZM89.4688 231.156C88.3229 231.156 87.3906 230.781 86.6719 230.031C85.9531 229.276 85.5938 228.268 85.5938 227.008V226.742C85.5938 225.904 85.7526 225.156 86.0703 224.5C86.3932 223.839 86.8411 223.323 87.4141 222.953C87.9922 222.578 88.6172 222.391 89.2891 222.391C90.388 222.391 91.2422 222.753 91.8516 223.477C92.4609 224.201 92.7656 225.237 92.7656 226.586V227.188H87.0391C87.0599 228.021 87.3021 228.695 87.7656 229.211C88.2344 229.721 88.8281 229.977 89.5469 229.977C90.0573 229.977 90.4896 229.872 90.8438 229.664C91.1979 229.456 91.5078 229.18 91.7734 228.836L92.6562 229.523C91.9479 230.612 90.8854 231.156 89.4688 231.156ZM89.2891 223.578C88.7057 223.578 88.2161 223.792 87.8203 224.219C87.4245 224.641 87.1797 225.234 87.0859 226H91.3203V225.891C91.2786 225.156 91.0807 224.589 90.7266 224.188C90.3724 223.781 89.8932 223.578 89.2891 223.578ZM96.4062 220.5V222.547H97.9844V223.664H96.4062V228.906C96.4062 229.245 96.4766 229.5 96.6172 229.672C96.7578 229.839 96.9974 229.922 97.3359 229.922C97.5026 229.922 97.7318 229.891 98.0234 229.828V231C97.6432 231.104 97.2734 231.156 96.9141 231.156C96.2682 231.156 95.7812 230.961 95.4531 230.57C95.125 230.18 94.9609 229.625 94.9609 228.906V223.664H93.4219V222.547H94.9609V220.5H96.4062ZM103.297 226.703C103.297 225.406 103.604 224.365 104.219 223.578C104.833 222.786 105.638 222.391 106.633 222.391C107.622 222.391 108.406 222.729 108.984 223.406V219H110.43V231H109.102L109.031 230.094C108.453 230.802 107.648 231.156 106.617 231.156C105.638 231.156 104.839 230.755 104.219 229.953C103.604 229.151 103.297 228.104 103.297 226.812V226.703ZM104.742 226.867C104.742 227.826 104.94 228.576 105.336 229.117C105.732 229.659 106.279 229.93 106.977 229.93C107.893 229.93 108.562 229.518 108.984 228.695V224.812C108.552 224.016 107.888 223.617 106.992 223.617C106.284 223.617 105.732 223.891 105.336 224.438C104.94 224.984 104.742 225.794 104.742 226.867ZM116.188 231.156C115.042 231.156 114.109 230.781 113.391 230.031C112.672 229.276 112.312 228.268 112.312 227.008V226.742C112.312 225.904 112.471 225.156 112.789 224.5C113.112 223.839 113.56 223.323 114.133 222.953C114.711 222.578 115.336 222.391 116.008 222.391C117.107 222.391 117.961 222.753 118.57 223.477C119.18 224.201 119.484 225.237 119.484 226.586V227.188H113.758C113.779 228.021 114.021 228.695 114.484 229.211C114.953 229.721 115.547 229.977 116.266 229.977C116.776 229.977 117.208 229.872 117.562 229.664C117.917 229.456 118.227 229.18 118.492 228.836L119.375 229.523C118.667 230.612 117.604 231.156 116.188 231.156ZM116.008 223.578C115.424 223.578 114.935 223.792 114.539 224.219C114.143 224.641 113.898 225.234 113.805 226H118.039V225.891C117.997 225.156 117.799 224.589 117.445 224.188C117.091 223.781 116.612 223.578 116.008 223.578ZM126.086 228.758C126.086 228.367 125.938 228.065 125.641 227.852C125.349 227.633 124.836 227.445 124.102 227.289C123.372 227.133 122.792 226.945 122.359 226.727C121.932 226.508 121.615 226.247 121.406 225.945C121.203 225.643 121.102 225.284 121.102 224.867C121.102 224.174 121.393 223.589 121.977 223.109C122.565 222.63 123.315 222.391 124.227 222.391C125.185 222.391 125.961 222.638 126.555 223.133C127.154 223.628 127.453 224.26 127.453 225.031H126C126 224.635 125.831 224.294 125.492 224.008C125.159 223.721 124.737 223.578 124.227 223.578C123.701 223.578 123.289 223.693 122.992 223.922C122.695 224.151 122.547 224.451 122.547 224.82C122.547 225.169 122.685 225.432 122.961 225.609C123.237 225.786 123.734 225.956 124.453 226.117C125.177 226.279 125.763 226.471 126.211 226.695C126.659 226.919 126.99 227.19 127.203 227.508C127.422 227.82 127.531 228.203 127.531 228.656C127.531 229.411 127.229 230.018 126.625 230.477C126.021 230.93 125.237 231.156 124.273 231.156C123.596 231.156 122.997 231.036 122.477 230.797C121.956 230.557 121.547 230.224 121.25 229.797C120.958 229.365 120.812 228.898 120.812 228.398H122.258C122.284 228.883 122.477 229.268 122.836 229.555C123.201 229.836 123.68 229.977 124.273 229.977C124.82 229.977 125.258 229.867 125.586 229.648C125.919 229.424 126.086 229.128 126.086 228.758ZM130.984 231H129.539V222.547H130.984V231ZM129.422 220.305C129.422 220.07 129.492 219.872 129.633 219.711C129.779 219.549 129.992 219.469 130.273 219.469C130.555 219.469 130.768 219.549 130.914 219.711C131.06 219.872 131.133 220.07 131.133 220.305C131.133 220.539 131.06 220.734 130.914 220.891C130.768 221.047 130.555 221.125 130.273 221.125C129.992 221.125 129.779 221.047 129.633 220.891C129.492 220.734 129.422 220.539 129.422 220.305ZM137.391 223.844C137.172 223.807 136.935 223.789 136.68 223.789C135.732 223.789 135.089 224.193 134.75 225V231H133.305V222.547H134.711L134.734 223.523C135.208 222.768 135.88 222.391 136.75 222.391C137.031 222.391 137.245 222.427 137.391 222.5V223.844ZM142.078 231.156C140.932 231.156 140 230.781 139.281 230.031C138.562 229.276 138.203 228.268 138.203 227.008V226.742C138.203 225.904 138.362 225.156 138.68 224.5C139.003 223.839 139.451 223.323 140.023 222.953C140.602 222.578 141.227 222.391 141.898 222.391C142.997 222.391 143.852 222.753 144.461 223.477C145.07 224.201 145.375 225.237 145.375 226.586V227.188H139.648C139.669 228.021 139.911 228.695 140.375 229.211C140.844 229.721 141.438 229.977 142.156 229.977C142.667 229.977 143.099 229.872 143.453 229.664C143.807 229.456 144.117 229.18 144.383 228.836L145.266 229.523C144.557 230.612 143.495 231.156 142.078 231.156ZM141.898 223.578C141.315 223.578 140.826 223.792 140.43 224.219C140.034 224.641 139.789 225.234 139.695 226H143.93V225.891C143.888 225.156 143.69 224.589 143.336 224.188C142.982 223.781 142.503 223.578 141.898 223.578ZM154.531 231.156C153.385 231.156 152.453 230.781 151.734 230.031C151.016 229.276 150.656 228.268 150.656 227.008V226.742C150.656 225.904 150.815 225.156 151.133 224.5C151.456 223.839 151.904 223.323 152.477 222.953C153.055 222.578 153.68 222.391 154.352 222.391C155.451 222.391 156.305 222.753 156.914 223.477C157.523 224.201 157.828 225.237 157.828 226.586V227.188H152.102C152.122 228.021 152.365 228.695 152.828 229.211C153.297 229.721 153.891 229.977 154.609 229.977C155.12 229.977 155.552 229.872 155.906 229.664C156.26 229.456 156.57 229.18 156.836 228.836L157.719 229.523C157.01 230.612 155.948 231.156 154.531 231.156ZM154.352 223.578C153.768 223.578 153.279 223.792 152.883 224.219C152.487 224.641 152.242 225.234 152.148 226H156.383V225.891C156.341 225.156 156.143 224.589 155.789 224.188C155.435 223.781 154.956 223.578 154.352 223.578ZM162.344 225.633L164.219 222.547H165.906L163.141 226.727L165.992 231H164.32L162.367 227.836L160.414 231H158.734L161.586 226.727L158.82 222.547H160.492L162.344 225.633ZM174.586 226.867C174.586 228.154 174.292 229.19 173.703 229.977C173.115 230.763 172.318 231.156 171.312 231.156C170.286 231.156 169.479 230.831 168.891 230.18V234.25H167.445V222.547H168.766L168.836 223.484C169.424 222.755 170.242 222.391 171.289 222.391C172.305 222.391 173.107 222.773 173.695 223.539C174.289 224.305 174.586 225.37 174.586 226.734V226.867ZM173.141 226.703C173.141 225.75 172.938 224.997 172.531 224.445C172.125 223.893 171.568 223.617 170.859 223.617C169.984 223.617 169.328 224.005 168.891 224.781V228.82C169.323 229.591 169.984 229.977 170.875 229.977C171.568 229.977 172.117 229.703 172.523 229.156C172.935 228.604 173.141 227.786 173.141 226.703ZM179.938 231.156C178.792 231.156 177.859 230.781 177.141 230.031C176.422 229.276 176.062 228.268 176.062 227.008V226.742C176.062 225.904 176.221 225.156 176.539 224.5C176.862 223.839 177.31 223.323 177.883 222.953C178.461 222.578 179.086 222.391 179.758 222.391C180.857 222.391 181.711 222.753 182.32 223.477C182.93 224.201 183.234 225.237 183.234 226.586V227.188H177.508C177.529 228.021 177.771 228.695 178.234 229.211C178.703 229.721 179.297 229.977 180.016 229.977C180.526 229.977 180.958 229.872 181.312 229.664C181.667 229.456 181.977 229.18 182.242 228.836L183.125 229.523C182.417 230.612 181.354 231.156 179.938 231.156ZM179.758 223.578C179.174 223.578 178.685 223.792 178.289 224.219C177.893 224.641 177.648 225.234 177.555 226H181.789V225.891C181.747 225.156 181.549 224.589 181.195 224.188C180.841 223.781 180.362 223.578 179.758 223.578ZM188.305 229.977C188.82 229.977 189.271 229.82 189.656 229.508C190.042 229.195 190.255 228.805 190.297 228.336H191.664C191.638 228.82 191.471 229.281 191.164 229.719C190.857 230.156 190.445 230.505 189.93 230.766C189.419 231.026 188.878 231.156 188.305 231.156C187.154 231.156 186.237 230.773 185.555 230.008C184.878 229.237 184.539 228.185 184.539 226.852V226.609C184.539 225.786 184.69 225.055 184.992 224.414C185.294 223.773 185.727 223.276 186.289 222.922C186.857 222.568 187.526 222.391 188.297 222.391C189.245 222.391 190.031 222.674 190.656 223.242C191.286 223.81 191.622 224.547 191.664 225.453H190.297C190.255 224.906 190.047 224.458 189.672 224.109C189.302 223.755 188.844 223.578 188.297 223.578C187.562 223.578 186.992 223.844 186.586 224.375C186.185 224.901 185.984 225.664 185.984 226.664V226.938C185.984 227.911 186.185 228.661 186.586 229.188C186.987 229.714 187.56 229.977 188.305 229.977ZM195.25 220.5V222.547H196.828V223.664H195.25V228.906C195.25 229.245 195.32 229.5 195.461 229.672C195.602 229.839 195.841 229.922 196.18 229.922C196.346 229.922 196.576 229.891 196.867 229.828V231C196.487 231.104 196.117 231.156 195.758 231.156C195.112 231.156 194.625 230.961 194.297 230.57C193.969 230.18 193.805 229.625 193.805 228.906V223.664H192.266V222.547H193.805V220.5H195.25ZM198.555 230.242C198.555 229.992 198.628 229.784 198.773 229.617C198.924 229.451 199.148 229.367 199.445 229.367C199.742 229.367 199.966 229.451 200.117 229.617C200.273 229.784 200.352 229.992 200.352 230.242C200.352 230.482 200.273 230.682 200.117 230.844C199.966 231.005 199.742 231.086 199.445 231.086C199.148 231.086 198.924 231.005 198.773 230.844C198.628 230.682 198.555 230.482 198.555 230.242ZM213.219 228.031H208.453L207.383 231H205.836L210.18 219.625H211.492L215.844 231H214.305L213.219 228.031ZM208.906 226.797H212.773L210.836 221.477L208.906 226.797ZM218.508 222.547L218.547 223.484C219.167 222.755 220.003 222.391 221.055 222.391C222.237 222.391 223.042 222.844 223.469 223.75C223.75 223.344 224.115 223.016 224.562 222.766C225.016 222.516 225.549 222.391 226.164 222.391C228.018 222.391 228.961 223.372 228.992 225.336V231H227.547V225.422C227.547 224.818 227.409 224.367 227.133 224.07C226.857 223.768 226.393 223.617 225.742 223.617C225.206 223.617 224.76 223.779 224.406 224.102C224.052 224.419 223.846 224.849 223.789 225.391V231H222.336V225.461C222.336 224.232 221.734 223.617 220.531 223.617C219.583 223.617 218.935 224.021 218.586 224.828V231H217.141V222.547H218.508ZM75.0391 255.977C75.5547 255.977 76.0052 255.82 76.3906 255.508C76.776 255.195 76.9896 254.805 77.0312 254.336H78.3984C78.3724 254.82 78.2057 255.281 77.8984 255.719C77.5911 256.156 77.1797 256.505 76.6641 256.766C76.1536 257.026 75.612 257.156 75.0391 257.156C73.888 257.156 72.9714 256.773 72.2891 256.008C71.612 255.237 71.2734 254.185 71.2734 252.852V252.609C71.2734 251.786 71.4245 251.055 71.7266 250.414C72.0286 249.773 72.4609 249.276 73.0234 248.922C73.5911 248.568 74.2604 248.391 75.0312 248.391C75.9792 248.391 76.7656 248.674 77.3906 249.242C78.0208 249.81 78.3568 250.547 78.3984 251.453H77.0312C76.9896 250.906 76.7812 250.458 76.4062 250.109C76.0365 249.755 75.5781 249.578 75.0312 249.578C74.2969 249.578 73.7266 249.844 73.3203 250.375C72.9193 250.901 72.7188 251.664 72.7188 252.664V252.938C72.7188 253.911 72.9193 254.661 73.3203 255.188C73.7214 255.714 74.2943 255.977 75.0391 255.977ZM79.6406 252.695C79.6406 251.867 79.8021 251.122 80.125 250.461C80.4531 249.799 80.9062 249.289 81.4844 248.93C82.0677 248.57 82.7318 248.391 83.4766 248.391C84.6276 248.391 85.5573 248.789 86.2656 249.586C86.9792 250.383 87.3359 251.443 87.3359 252.766V252.867C87.3359 253.69 87.1771 254.43 86.8594 255.086C86.5469 255.737 86.0964 256.245 85.5078 256.609C84.9245 256.974 84.2526 257.156 83.4922 257.156C82.3464 257.156 81.4167 256.758 80.7031 255.961C79.9948 255.164 79.6406 254.109 79.6406 252.797V252.695ZM81.0938 252.867C81.0938 253.805 81.3099 254.557 81.7422 255.125C82.1797 255.693 82.763 255.977 83.4922 255.977C84.2266 255.977 84.8099 255.69 85.2422 255.117C85.6745 254.539 85.8906 253.732 85.8906 252.695C85.8906 251.768 85.6693 251.018 85.2266 250.445C84.7891 249.867 84.2057 249.578 83.4766 249.578C82.763 249.578 82.1875 249.862 81.75 250.43C81.3125 250.997 81.0938 251.81 81.0938 252.867ZM91.1094 246.5V248.547H92.6875V249.664H91.1094V254.906C91.1094 255.245 91.1797 255.5 91.3203 255.672C91.4609 255.839 91.7005 255.922 92.0391 255.922C92.2057 255.922 92.4349 255.891 92.7266 255.828V257C92.3464 257.104 91.9766 257.156 91.6172 257.156C90.9714 257.156 90.4844 256.961 90.1562 256.57C89.8281 256.18 89.6641 255.625 89.6641 254.906V249.664H88.125V248.547H89.6641V246.5H91.1094ZM96.3438 246.5V248.547H97.9219V249.664H96.3438V254.906C96.3438 255.245 96.4141 255.5 96.5547 255.672C96.6953 255.839 96.9349 255.922 97.2734 255.922C97.4401 255.922 97.6693 255.891 97.9609 255.828V257C97.5807 257.104 97.2109 257.156 96.8516 257.156C96.2057 257.156 95.7188 256.961 95.3906 256.57C95.0625 256.18 94.8984 255.625 94.8984 254.906V249.664H93.3594V248.547H94.8984V246.5H96.3438ZM104.836 257C104.753 256.833 104.685 256.536 104.633 256.109C103.961 256.807 103.159 257.156 102.227 257.156C101.393 257.156 100.708 256.922 100.172 256.453C99.6406 255.979 99.375 255.38 99.375 254.656C99.375 253.776 99.7083 253.094 100.375 252.609C101.047 252.12 101.99 251.875 103.203 251.875H104.609V251.211C104.609 250.706 104.458 250.305 104.156 250.008C103.854 249.706 103.409 249.555 102.82 249.555C102.305 249.555 101.872 249.685 101.523 249.945C101.174 250.206 101 250.521 101 250.891H99.5469C99.5469 250.469 99.6953 250.062 99.9922 249.672C100.294 249.276 100.701 248.964 101.211 248.734C101.727 248.505 102.292 248.391 102.906 248.391C103.88 248.391 104.643 248.635 105.195 249.125C105.747 249.609 106.034 250.279 106.055 251.133V255.023C106.055 255.799 106.154 256.417 106.352 256.875V257H104.836ZM102.438 255.898C102.891 255.898 103.32 255.781 103.727 255.547C104.133 255.312 104.427 255.008 104.609 254.633V252.898H103.477C101.706 252.898 100.82 253.417 100.82 254.453C100.82 254.906 100.971 255.26 101.273 255.516C101.576 255.771 101.964 255.898 102.438 255.898ZM107.977 252.703C107.977 251.385 108.281 250.339 108.891 249.562C109.5 248.781 110.307 248.391 111.312 248.391C112.344 248.391 113.148 248.755 113.727 249.484L113.797 248.547H115.117V256.797C115.117 257.891 114.792 258.753 114.141 259.383C113.495 260.013 112.625 260.328 111.531 260.328C110.922 260.328 110.326 260.198 109.742 259.938C109.159 259.677 108.714 259.32 108.406 258.867L109.156 258C109.776 258.766 110.534 259.148 111.43 259.148C112.133 259.148 112.68 258.951 113.07 258.555C113.466 258.159 113.664 257.602 113.664 256.883V256.156C113.086 256.823 112.297 257.156 111.297 257.156C110.307 257.156 109.505 256.758 108.891 255.961C108.281 255.164 107.977 254.078 107.977 252.703ZM109.43 252.867C109.43 253.82 109.625 254.57 110.016 255.117C110.406 255.659 110.953 255.93 111.656 255.93C112.568 255.93 113.237 255.516 113.664 254.688V250.828C113.221 250.021 112.557 249.617 111.672 249.617C110.969 249.617 110.419 249.891 110.023 250.438C109.628 250.984 109.43 251.794 109.43 252.867ZM120.812 257.156C119.667 257.156 118.734 256.781 118.016 256.031C117.297 255.276 116.938 254.268 116.938 253.008V252.742C116.938 251.904 117.096 251.156 117.414 250.5C117.737 249.839 118.185 249.323 118.758 248.953C119.336 248.578 119.961 248.391 120.633 248.391C121.732 248.391 122.586 248.753 123.195 249.477C123.805 250.201 124.109 251.237 124.109 252.586V253.188H118.383C118.404 254.021 118.646 254.695 119.109 255.211C119.578 255.721 120.172 255.977 120.891 255.977C121.401 255.977 121.833 255.872 122.188 255.664C122.542 255.456 122.852 255.18 123.117 254.836L124 255.523C123.292 256.612 122.229 257.156 120.812 257.156ZM120.633 249.578C120.049 249.578 119.56 249.792 119.164 250.219C118.768 250.641 118.523 251.234 118.43 252H122.664V251.891C122.622 251.156 122.424 250.589 122.07 250.188C121.716 249.781 121.237 249.578 120.633 249.578ZM133.148 255.977C133.664 255.977 134.115 255.82 134.5 255.508C134.885 255.195 135.099 254.805 135.141 254.336H136.508C136.482 254.82 136.315 255.281 136.008 255.719C135.701 256.156 135.289 256.505 134.773 256.766C134.263 257.026 133.721 257.156 133.148 257.156C131.997 257.156 131.081 256.773 130.398 256.008C129.721 255.237 129.383 254.185 129.383 252.852V252.609C129.383 251.786 129.534 251.055 129.836 250.414C130.138 249.773 130.57 249.276 131.133 248.922C131.701 248.568 132.37 248.391 133.141 248.391C134.089 248.391 134.875 248.674 135.5 249.242C136.13 249.81 136.466 250.547 136.508 251.453H135.141C135.099 250.906 134.891 250.458 134.516 250.109C134.146 249.755 133.688 249.578 133.141 249.578C132.406 249.578 131.836 249.844 131.43 250.375C131.029 250.901 130.828 251.664 130.828 252.664V252.938C130.828 253.911 131.029 254.661 131.43 255.188C131.831 255.714 132.404 255.977 133.148 255.977ZM143.352 257C143.268 256.833 143.201 256.536 143.148 256.109C142.477 256.807 141.674 257.156 140.742 257.156C139.909 257.156 139.224 256.922 138.688 256.453C138.156 255.979 137.891 255.38 137.891 254.656C137.891 253.776 138.224 253.094 138.891 252.609C139.562 252.12 140.505 251.875 141.719 251.875H143.125V251.211C143.125 250.706 142.974 250.305 142.672 250.008C142.37 249.706 141.924 249.555 141.336 249.555C140.82 249.555 140.388 249.685 140.039 249.945C139.69 250.206 139.516 250.521 139.516 250.891H138.062C138.062 250.469 138.211 250.062 138.508 249.672C138.81 249.276 139.216 248.964 139.727 248.734C140.242 248.505 140.807 248.391 141.422 248.391C142.396 248.391 143.159 248.635 143.711 249.125C144.263 249.609 144.549 250.279 144.57 251.133V255.023C144.57 255.799 144.669 256.417 144.867 256.875V257H143.352ZM140.953 255.898C141.406 255.898 141.836 255.781 142.242 255.547C142.648 255.312 142.943 255.008 143.125 254.633V252.898H141.992C140.221 252.898 139.336 253.417 139.336 254.453C139.336 254.906 139.487 255.26 139.789 255.516C140.091 255.771 140.479 255.898 140.953 255.898ZM148.406 257H146.961V245H148.406V257ZM152.297 257H150.852V245H152.297V257ZM156.188 257H154.742V248.547H156.188V257ZM154.625 246.305C154.625 246.07 154.695 245.872 154.836 245.711C154.982 245.549 155.195 245.469 155.477 245.469C155.758 245.469 155.971 245.549 156.117 245.711C156.263 245.872 156.336 246.07 156.336 246.305C156.336 246.539 156.263 246.734 156.117 246.891C155.971 247.047 155.758 247.125 155.477 247.125C155.195 247.125 154.982 247.047 154.836 246.891C154.695 246.734 154.625 246.539 154.625 246.305ZM159.875 248.547L159.922 249.609C160.568 248.797 161.411 248.391 162.453 248.391C164.24 248.391 165.141 249.398 165.156 251.414V257H163.711V251.406C163.706 250.797 163.565 250.346 163.289 250.055C163.018 249.763 162.594 249.617 162.016 249.617C161.547 249.617 161.135 249.742 160.781 249.992C160.427 250.242 160.151 250.57 159.953 250.977V257H158.508V248.547H159.875ZM166.992 252.703C166.992 251.385 167.297 250.339 167.906 249.562C168.516 248.781 169.323 248.391 170.328 248.391C171.359 248.391 172.164 248.755 172.742 249.484L172.812 248.547H174.133V256.797C174.133 257.891 173.807 258.753 173.156 259.383C172.51 260.013 171.641 260.328 170.547 260.328C169.938 260.328 169.341 260.198 168.758 259.938C168.174 259.677 167.729 259.32 167.422 258.867L168.172 258C168.792 258.766 169.549 259.148 170.445 259.148C171.148 259.148 171.695 258.951 172.086 258.555C172.482 258.159 172.68 257.602 172.68 256.883V256.156C172.102 256.823 171.312 257.156 170.312 257.156C169.323 257.156 168.521 256.758 167.906 255.961C167.297 255.164 166.992 254.078 166.992 252.703ZM168.445 252.867C168.445 253.82 168.641 254.57 169.031 255.117C169.422 255.659 169.969 255.93 170.672 255.93C171.583 255.93 172.253 255.516 172.68 254.688V250.828C172.237 250.021 171.573 249.617 170.688 249.617C169.984 249.617 169.435 249.891 169.039 250.438C168.643 250.984 168.445 251.794 168.445 252.867ZM176.352 256.242C176.352 255.992 176.424 255.784 176.57 255.617C176.721 255.451 176.945 255.367 177.242 255.367C177.539 255.367 177.763 255.451 177.914 255.617C178.07 255.784 178.148 255.992 178.148 256.242C178.148 256.482 178.07 256.682 177.914 256.844C177.763 257.005 177.539 257.086 177.242 257.086C176.945 257.086 176.721 257.005 176.57 256.844C176.424 256.682 176.352 256.482 176.352 256.242Z" fill="#333333"/>
<path id="Research Suburbs" d="M30.7949 165H33.0939V159.313H37.2959L40.0569 165H42.6859L39.6939 158.862C40.5959 158.473 41.2705 157.868 41.7179 157.047C42.1652 156.226 42.3889 155.287 42.3889 154.231C42.3889 152.948 42.0589 151.848 41.3989 150.931C40.7389 150.014 39.7452 149.453 38.4179 149.248C38.2126 149.211 37.9962 149.189 37.7689 149.182C37.5415 149.167 37.3509 149.16 37.1969 149.16H30.7949V165ZM33.0939 157.135V151.327H37.1089C37.2555 151.327 37.4169 151.334 37.5929 151.349C37.7762 151.364 37.9486 151.393 38.1099 151.437C38.8139 151.598 39.3125 151.958 39.6059 152.515C39.8992 153.072 40.0459 153.644 40.0459 154.231C40.0459 154.81 39.8992 155.382 39.6059 155.947C39.3125 156.504 38.8139 156.867 38.1099 157.036C37.9486 157.073 37.7762 157.098 37.5929 157.113C37.4169 157.128 37.2555 157.135 37.1089 157.135H33.0939ZM50.3725 165.33C51.5238 165.33 52.5688 165.04 53.5075 164.461C54.4461 163.874 55.1465 163.049 55.6085 161.986L53.3535 161.271C52.7521 162.532 51.7218 163.163 50.2625 163.163C49.2651 163.163 48.4805 162.862 47.9085 162.261C47.3365 161.66 47.0028 160.809 46.9075 159.709H55.7625C55.8431 158.286 55.6745 157.058 55.2565 156.024C54.8385 154.99 54.2041 154.194 53.3535 153.637C52.5028 153.072 51.4725 152.79 50.2625 152.79C49.1038 152.79 48.0881 153.05 47.2155 153.571C46.3428 154.092 45.6608 154.829 45.1695 155.782C44.6855 156.735 44.4435 157.861 44.4435 159.159C44.4435 160.384 44.6891 161.462 45.1805 162.393C45.6791 163.317 46.3721 164.039 47.2595 164.56C48.1541 165.073 49.1918 165.33 50.3725 165.33ZM50.3505 154.825C52.1471 154.825 53.1665 155.855 53.4085 157.916H46.9625C47.1091 156.911 47.4648 156.145 48.0295 155.617C48.5941 155.089 49.3678 154.825 50.3505 154.825ZM62.7734 165.319C64.2768 165.319 65.4538 164.985 66.3044 164.318C67.1624 163.651 67.5914 162.73 67.5914 161.557C67.5914 160.941 67.4631 160.42 67.2064 159.995C66.9571 159.57 66.5391 159.203 65.9524 158.895C65.3658 158.58 64.5738 158.294 63.5764 158.037C62.6451 157.802 61.9411 157.601 61.4644 157.432C60.9951 157.256 60.6761 157.08 60.5074 156.904C60.3388 156.721 60.2544 156.497 60.2544 156.233C60.2544 155.778 60.4708 155.423 60.9034 155.166C61.3361 154.902 61.9008 154.785 62.5974 154.814C63.3234 154.843 63.9138 155.027 64.3684 155.364C64.8231 155.694 65.0908 156.141 65.1714 156.706L67.5254 156.277C67.3934 155.221 66.8764 154.378 65.9744 153.747C65.0724 153.109 63.9394 152.79 62.5754 152.79C61.1821 152.79 60.0638 153.116 59.2204 153.769C58.3771 154.414 57.9554 155.276 57.9554 156.354C57.9554 156.933 58.0801 157.428 58.3294 157.839C58.5861 158.242 59.0114 158.594 59.6054 158.895C60.2068 159.196 61.0171 159.482 62.0364 159.753C62.9678 160.002 63.6608 160.211 64.1154 160.38C64.5701 160.549 64.8671 160.728 65.0064 160.919C65.1531 161.102 65.2264 161.344 65.2264 161.645C65.2264 162.158 65.0211 162.562 64.6104 162.855C64.2071 163.148 63.6461 163.295 62.9274 163.295C62.1354 163.295 61.4718 163.119 60.9364 162.767C60.4084 162.415 60.0711 161.927 59.9244 161.304L57.5704 161.667C57.7758 162.826 58.3331 163.724 59.2424 164.362C60.1518 165 61.3288 165.319 62.7734 165.319ZM75.2944 165.33C76.4457 165.33 77.4907 165.04 78.4294 164.461C79.368 163.874 80.0684 163.049 80.5304 161.986L78.2754 161.271C77.674 162.532 76.6437 163.163 75.1844 163.163C74.187 163.163 73.4024 162.862 72.8304 162.261C72.2584 161.66 71.9247 160.809 71.8294 159.709H80.6844C80.765 158.286 80.5964 157.058 80.1784 156.024C79.7604 154.99 79.126 154.194 78.2754 153.637C77.4247 153.072 76.3944 152.79 75.1844 152.79C74.0257 152.79 73.01 153.05 72.1374 153.571C71.2647 154.092 70.5827 154.829 70.0914 155.782C69.6074 156.735 69.3654 157.861 69.3654 159.159C69.3654 160.384 69.611 161.462 70.1024 162.393C70.601 163.317 71.294 164.039 72.1814 164.56C73.076 165.073 74.1137 165.33 75.2944 165.33ZM75.2724 154.825C77.069 154.825 78.0884 155.855 78.3304 157.916H71.8844C72.031 156.911 72.3867 156.145 72.9514 155.617C73.516 155.089 74.2897 154.825 75.2724 154.825ZM86.2925 165.33C88.1845 165.33 89.6108 164.644 90.5715 163.273V165H92.6065V157.685C92.6065 157.186 92.5845 156.721 92.5405 156.288C92.4965 155.855 92.3791 155.445 92.1885 155.056C91.8218 154.271 91.2425 153.699 90.4505 153.34C89.6658 152.973 88.7418 152.79 87.6785 152.79C86.3071 152.79 85.2071 153.091 84.3785 153.692C83.5498 154.293 82.9925 155.104 82.7065 156.123L84.8515 156.783C85.0568 156.123 85.4198 155.646 85.9405 155.353C86.4611 155.06 87.0331 154.913 87.6565 154.913C88.5805 154.913 89.2478 155.111 89.6585 155.507C90.0765 155.896 90.3038 156.501 90.3405 157.322C89.3725 157.454 88.4265 157.593 87.5025 157.74C86.5785 157.879 85.7718 158.048 85.0825 158.246C84.1658 158.539 83.4691 158.976 82.9925 159.555C82.5158 160.134 82.2775 160.871 82.2775 161.766C82.2775 162.411 82.4278 163.005 82.7285 163.548C83.0365 164.083 83.4875 164.516 84.0815 164.846C84.6828 165.169 85.4198 165.33 86.2925 165.33ZM86.6995 163.449C85.9661 163.449 85.4235 163.28 85.0715 162.943C84.7268 162.606 84.5545 162.206 84.5545 161.744C84.5545 161.275 84.7085 160.904 85.0165 160.633C85.3318 160.362 85.7241 160.145 86.1935 159.984C86.6921 159.837 87.2788 159.709 87.9535 159.599C88.6355 159.489 89.4238 159.368 90.3185 159.236C90.3111 159.515 90.2928 159.826 90.2635 160.171C90.2341 160.516 90.1718 160.824 90.0765 161.095C89.9885 161.484 89.8015 161.858 89.5155 162.217C89.2368 162.576 88.8591 162.873 88.3825 163.108C87.9131 163.335 87.3521 163.449 86.6995 163.449ZM95.4629 165H97.7839V159.005C97.7839 158.308 97.8939 157.663 98.1139 157.069C98.3339 156.475 98.7225 155.998 99.2799 155.639C99.6759 155.382 100.112 155.232 100.589 155.188C101.066 155.144 101.495 155.173 101.876 155.276V153.12C101.341 153.017 100.772 153.021 100.171 153.131C99.5769 153.241 99.0562 153.461 98.6089 153.791C98.1689 154.084 97.8022 154.491 97.5089 155.012V153.12H95.4629V165ZM108.838 165.33C110.114 165.33 111.199 165.022 112.094 164.406C112.988 163.79 113.63 162.899 114.019 161.733L111.687 161.183C111.445 161.821 111.093 162.312 110.631 162.657C110.176 162.994 109.578 163.163 108.838 163.163C107.752 163.163 106.931 162.785 106.374 162.03C105.824 161.275 105.545 160.285 105.538 159.06C105.545 157.872 105.813 156.893 106.341 156.123C106.876 155.346 107.708 154.957 108.838 154.957C109.505 154.957 110.095 155.144 110.609 155.518C111.129 155.885 111.503 156.402 111.731 157.069L114.019 156.409C113.725 155.294 113.117 154.414 112.193 153.769C111.276 153.116 110.169 152.79 108.871 152.79C107.675 152.79 106.645 153.058 105.78 153.593C104.922 154.128 104.262 154.869 103.8 155.815C103.338 156.754 103.103 157.835 103.096 159.06C103.103 160.263 103.33 161.337 103.778 162.283C104.232 163.229 104.885 163.973 105.736 164.516C106.594 165.059 107.628 165.33 108.838 165.33ZM116.249 165H118.581V158.818C118.581 157.879 118.716 157.131 118.988 156.574C119.266 156.009 119.633 155.602 120.088 155.353C120.542 155.104 121.045 154.979 121.595 154.979C122.225 154.979 122.739 155.107 123.135 155.364C123.531 155.621 123.835 155.958 124.048 156.376C124.26 156.794 124.403 157.249 124.477 157.74C124.557 158.224 124.598 158.697 124.598 159.159V165H126.93V158.4C126.93 158.033 126.897 157.608 126.831 157.124C126.765 156.64 126.64 156.145 126.457 155.639C126.273 155.133 126.006 154.667 125.654 154.242C125.309 153.809 124.858 153.461 124.301 153.197C123.743 152.933 123.054 152.801 122.233 152.801C121.375 152.801 120.612 152.955 119.945 153.263C119.285 153.571 118.738 153.996 118.306 154.539V149.16H116.249V165ZM139.941 165.33C141.034 165.33 142.039 165.147 142.955 164.78C143.879 164.413 144.62 163.871 145.177 163.152C145.735 162.433 146.013 161.542 146.013 160.479C146.013 159.709 145.87 159.071 145.584 158.565C145.298 158.052 144.935 157.641 144.495 157.333C144.063 157.025 143.612 156.787 143.142 156.618C142.68 156.442 142.266 156.303 141.899 156.2L138.973 155.375C138.599 155.272 138.222 155.144 137.84 154.99C137.466 154.829 137.151 154.612 136.894 154.341C136.638 154.07 136.509 153.714 136.509 153.274C136.509 152.819 136.652 152.423 136.938 152.086C137.232 151.741 137.62 151.474 138.104 151.283C138.596 151.092 139.135 151.004 139.721 151.019C140.631 151.026 141.434 151.287 142.13 151.8C142.834 152.306 143.271 153.006 143.439 153.901L145.903 153.483C145.581 152.024 144.877 150.891 143.791 150.084C142.706 149.27 141.36 148.856 139.754 148.841C138.691 148.834 137.73 149.006 136.872 149.358C136.014 149.71 135.332 150.223 134.826 150.898C134.328 151.573 134.078 152.401 134.078 153.384C134.078 154.235 134.258 154.924 134.617 155.452C134.977 155.98 135.424 156.391 135.959 156.684C136.502 156.977 137.037 157.201 137.565 157.355L141.624 158.554C142.211 158.73 142.688 158.979 143.054 159.302C143.428 159.617 143.615 160.061 143.615 160.633C143.615 161.161 143.45 161.616 143.12 161.997C142.798 162.371 142.369 162.661 141.833 162.866C141.298 163.064 140.711 163.163 140.073 163.163C139.047 163.163 138.148 162.895 137.378 162.36C136.608 161.825 136.102 161.069 135.86 160.094L133.462 160.457C133.638 161.462 134.02 162.331 134.606 163.064C135.193 163.79 135.945 164.351 136.861 164.747C137.778 165.136 138.805 165.33 139.941 165.33ZM152.834 165.319C153.692 165.319 154.451 165.165 155.111 164.857C155.779 164.549 156.329 164.124 156.761 163.581V165H158.807V153.12H156.486V159.302C156.486 160.241 156.351 160.992 156.079 161.557C155.808 162.114 155.441 162.518 154.979 162.767C154.525 163.016 154.022 163.141 153.472 163.141C152.842 163.141 152.328 163.013 151.932 162.756C151.536 162.499 151.232 162.162 151.019 161.744C150.807 161.326 150.66 160.875 150.579 160.391C150.506 159.9 150.469 159.423 150.469 158.961V153.12H148.137V159.72C148.137 160.087 148.17 160.512 148.236 160.996C148.302 161.48 148.427 161.975 148.61 162.481C148.794 162.987 149.058 163.456 149.402 163.889C149.754 164.314 150.209 164.659 150.766 164.923C151.324 165.187 152.013 165.319 152.834 165.319ZM161.882 165H163.928V163.911C164.36 164.358 164.87 164.707 165.457 164.956C166.051 165.205 166.722 165.33 167.47 165.33C168.577 165.33 169.53 165.055 170.33 164.505C171.136 163.948 171.756 163.196 172.189 162.25C172.629 161.304 172.849 160.237 172.849 159.049C172.849 157.854 172.629 156.787 172.189 155.848C171.749 154.902 171.122 154.158 170.308 153.615C169.501 153.065 168.54 152.79 167.426 152.79C166.766 152.79 166.164 152.889 165.622 153.087C165.079 153.285 164.602 153.567 164.192 153.934V149.16H161.882V165ZM167.151 163.251C166.021 163.251 165.2 162.859 164.687 162.074C164.181 161.289 163.928 160.281 163.928 159.049C163.928 157.817 164.181 156.812 164.687 156.035C165.193 155.258 165.988 154.869 167.074 154.869C167.836 154.869 168.463 155.056 168.955 155.43C169.446 155.804 169.809 156.306 170.044 156.937C170.286 157.568 170.407 158.272 170.407 159.049C170.407 159.834 170.289 160.545 170.055 161.183C169.82 161.814 169.461 162.316 168.977 162.69C168.5 163.064 167.891 163.251 167.151 163.251ZM179.754 165.319C180.612 165.319 181.371 165.165 182.031 164.857C182.699 164.549 183.249 164.124 183.681 163.581V165H185.727V153.12H183.406V159.302C183.406 160.241 183.271 160.992 182.999 161.557C182.728 162.114 182.361 162.518 181.899 162.767C181.445 163.016 180.942 163.141 180.392 163.141C179.762 163.141 179.248 163.013 178.852 162.756C178.456 162.499 178.152 162.162 177.939 161.744C177.727 161.326 177.58 160.875 177.499 160.391C177.426 159.9 177.389 159.423 177.389 158.961V153.12H175.057V159.72C175.057 160.087 175.09 160.512 175.156 160.996C175.222 161.48 175.347 161.975 175.53 162.481C175.714 162.987 175.978 163.456 176.322 163.889C176.674 164.314 177.129 164.659 177.686 164.923C178.244 165.187 178.933 165.319 179.754 165.319ZM188.812 165H191.133V159.005C191.133 158.308 191.243 157.663 191.463 157.069C191.683 156.475 192.072 155.998 192.629 155.639C193.025 155.382 193.462 155.232 193.938 155.188C194.415 155.144 194.844 155.173 195.225 155.276V153.12C194.69 153.017 194.122 153.021 193.52 153.131C192.926 153.241 192.406 153.461 191.958 153.791C191.518 154.084 191.152 154.491 190.858 155.012V153.12H188.812V165ZM197.309 165H199.355V163.911C199.788 164.358 200.298 164.707 200.884 164.956C201.478 165.205 202.149 165.33 202.897 165.33C204.005 165.33 204.958 165.055 205.757 164.505C206.564 163.948 207.184 163.196 207.616 162.25C208.056 161.304 208.276 160.237 208.276 159.049C208.276 157.854 208.056 156.787 207.616 155.848C207.176 154.902 206.549 154.158 205.735 153.615C204.929 153.065 203.968 152.79 202.853 152.79C202.193 152.79 201.592 152.889 201.049 153.087C200.507 153.285 200.03 153.567 199.619 153.934V149.16H197.309V165ZM202.578 163.251C201.449 163.251 200.628 162.859 200.114 162.074C199.608 161.289 199.355 160.281 199.355 159.049C199.355 157.817 199.608 156.812 200.114 156.035C200.62 155.258 201.416 154.869 202.501 154.869C203.264 154.869 203.891 155.056 204.382 155.43C204.874 155.804 205.237 156.306 205.471 156.937C205.713 157.568 205.834 158.272 205.834 159.049C205.834 159.834 205.717 160.545 205.482 161.183C205.248 161.814 204.888 162.316 204.404 162.69C203.928 163.064 203.319 163.251 202.578 163.251ZM215.033 165.319C216.537 165.319 217.714 164.985 218.564 164.318C219.422 163.651 219.851 162.73 219.851 161.557C219.851 160.941 219.723 160.42 219.466 159.995C219.217 159.57 218.799 159.203 218.212 158.895C217.626 158.58 216.834 158.294 215.836 158.037C214.905 157.802 214.201 157.601 213.724 157.432C213.255 157.256 212.936 157.08 212.767 156.904C212.599 156.721 212.514 156.497 212.514 156.233C212.514 155.778 212.731 155.423 213.163 155.166C213.596 154.902 214.161 154.785 214.857 154.814C215.583 154.843 216.174 155.027 216.628 155.364C217.083 155.694 217.351 156.141 217.431 156.706L219.785 156.277C219.653 155.221 219.136 154.378 218.234 153.747C217.332 153.109 216.199 152.79 214.835 152.79C213.442 152.79 212.324 153.116 211.48 153.769C210.637 154.414 210.215 155.276 210.215 156.354C210.215 156.933 210.34 157.428 210.589 157.839C210.846 158.242 211.271 158.594 211.865 158.895C212.467 159.196 213.277 159.482 214.296 159.753C215.228 160.002 215.921 160.211 216.375 160.38C216.83 160.549 217.127 160.728 217.266 160.919C217.413 161.102 217.486 161.344 217.486 161.645C217.486 162.158 217.281 162.562 216.87 162.855C216.467 163.148 215.906 163.295 215.187 163.295C214.395 163.295 213.732 163.119 213.196 162.767C212.668 162.415 212.331 161.927 212.184 161.304L209.83 161.667C210.036 162.826 210.593 163.724 211.502 164.362C212.412 165 213.589 165.319 215.033 165.319Z" fill="black"/>
<g id="Icon">
<g id="Fill" filter="url(#filter0_dddddd_0_1)">
<rect x="80" y="2" width="90" height="90" rx="20" fill="#9672FF"/>
</g>
<path id="Icon_2" d="M137.293 60.7071C137.683 61.0976 138.317 61.0976 138.707 60.7071C139.098 60.3166 139.098 59.6834 138.707 59.2929L137.293 60.7071ZM138.707 59.2929L131.38 51.9653L129.965 53.3795L137.293 60.7071L138.707 59.2929ZM132.69 45.3448C132.69 50.5058 128.506 54.6897 123.345 54.6897V56.6897C129.61 56.6897 134.69 51.6104 134.69 45.3448H132.69ZM123.345 54.6897C118.184 54.6897 114 50.5058 114 45.3448H112C112 51.6104 117.079 56.6897 123.345 56.6897V54.6897ZM114 45.3448C114 40.1838 118.184 36 123.345 36V34C117.079 34 112 39.0793 112 45.3448H114ZM123.345 36C128.506 36 132.69 40.1838 132.69 45.3448H134.69C134.69 39.0793 129.61 34 123.345 34V36Z" fill="white"/>
</g>
</g>
<g id="Group 19">
<path id="Vector 709" opacity="0.2" d="M227 48.5H418.5" stroke="url(#paint0_linear_0_1)" stroke-width="3" stroke-dasharray="5 10"/>
<circle id="Ellipse 4" cx="223.5" cy="48.5" r="5.5" fill="#9672FF"/>
</g>
</g>
</g>
<defs>
<filter id="filter0_dddddd_0_1" x="0" y="0.703704" width="250" height="271.296" filterUnits="userSpaceOnUse" color-interpolation-filters="sRGB">
<feFlood flood-opacity="0" result="BackgroundImageFix"/>
<feColorMatrix in="SourceAlpha" type="matrix" values="0 0 0 0 0 0 0 0 0 0 0 0 0 0 0 0 0 0 127 0" result="hardAlpha"/>
<feOffset dy="1.85185"/>
<feGaussianBlur stdDeviation="1.57407"/>
<feColorMatrix type="matrix" values="0 0 0 0 0.588235 0 0 0 0 0.447059 0 0 0 0 1 0 0 0 0.0168519 0"/>
<feBlend mode="normal" in2="BackgroundImageFix" result="effect1_dropShadow_0_1"/>
<feColorMatrix in="SourceAlpha" type="matrix" values="0 0 0 0 0 0 0 0 0 0 0 0 0 0 0 0 0 0 127 0" result="hardAlpha"/>
<feOffset dy="8.14815"/>
<feGaussianBlur stdDeviation="3.25926"/>
<feColorMatrix type="matrix" values="0 0 0 0 0.588235 0 0 0 0 0.447059 0 0 0 0 1 0 0 0 0.0274815 0"/>
<feBlend mode="normal" in2="effect1_dropShadow_0_1" result="effect2_dropShadow_0_1"/>
<feColorMatrix in="SourceAlpha" type="matrix" values="0 0 0 0 0 0 0 0 0 0 0 0 0 0 0 0 0 0 127 0" result="hardAlpha"/>
<feOffset dy="20"/>
<feGaussianBlur stdDeviation="6.5"/>
<feColorMatrix type="matrix" values="0 0 0 0 0.588235 0 0 0 0 0.447059 0 0 0 0 1 0 0 0 0.035 0"/>
<feBlend mode="normal" in2="effect2_dropShadow_0_1" result="effect3_dropShadow_0_1"/>
<feColorMatrix in="SourceAlpha" type="matrix" values="0 0 0 0 0 0 0 0 0 0 0 0 0 0 0 0 0 0 127 0" result="hardAlpha"/>
<feOffset dy="38.5185"/>
<feGaussianBlur stdDeviation="12.7407"/>
<feColorMatrix type="matrix" values="0 0 0 0 0.588235 0 0 0 0 0.447059 0 0 0 0 1 0 0 0 0.0425185 0"/>
<feBlend mode="normal" in2="effect3_dropShadow_0_1" result="effect4_dropShadow_0_1"/>
<feColorMatrix in="SourceAlpha" type="matrix" values="0 0 0 0 0 0 0 0 0 0 0 0 0 0 0 0 0 0 127 0" result="hardAlpha"/>
<feOffset dy="64.8148"/>
<feGaussianBlur stdDeviation="23.4259"/>
<feColorMatrix type="matrix" values="0 0 0 0 0.588235 0 0 0 0 0.447059 0 0 0 0 1 0 0 0 0.0531481 0"/>
<feBlend mode="normal" in2="effect4_dropShadow_0_1" result="effect5_dropShadow_0_1"/>
<feColorMatrix in="SourceAlpha" type="matrix" values="0 0 0 0 0 0 0 0 0 0 0 0 0 0 0 0 0 0 127 0" result="hardAlpha"/>
<feOffset dy="100"/>
<feGaussianBlur stdDeviation="40"/>
<feColorMatrix type="matrix" values="0 0 0 0 0.588235 0 0 0 0 0.447059 0 0 0 0 1 0 0 0 0.07 0"/>
<feBlend mode="normal" in2="effect5_dropShadow_0_1" result="effect6_dropShadow_0_1"/>
<feBlend mode="normal" in="SourceGraphic" in2="effect6_dropShadow_0_1" result="shape"/>
</filter>
<linearGradient id="paint0_linear_0_1" x1="232" y1="49.9994" x2="423.5" y2="50.4996" gradientUnits="userSpaceOnUse">
<stop stop-color="#9672FF"/>
<stop offset="1" stop-color="#4DDFFD"/>
</linearGradient>
<clipPath id="clip0_0_1">
<rect width="1440" height="5169" fill="white" transform="translate(-175 -1194)"/>
</clipPath>
</defs>
</svg>
